<svg width="375" height="1336" viewBox="0 0 375 1336" fill="none" xmlns="http://www.w3.org/2000/svg">
<rect width="375" height="1336" fill="#FFF0D5"/>
<path d="M25.4523 346.198C34.5959 339.801 47.346 342.013 53.7112 351.079C60.2742 360.42 57.3515 373.191 48.7035 379.313C39.2932 385.974 25.1711 383.296 20.2468 374.396C16.9422 368.425 17.1657 358.559 23.9167 353.705C30.6992 348.824 41.5703 350.835 45.0151 357.344C47.1116 361.306 47.0247 367.997 42.5711 371.124C38.2124 374.185 31.0797 372.826 29.0215 368.787C27.8341 366.459 28.0189 362.633 30.4025 361.001C32.9524 359.268 37.1857 360.597 37.7434 362.275C37.8781 362.679 37.9226 363.479 37.477 363.776C37.1437 364.011 36.5769 363.89 36.0639 363.53" stroke="#096455" stroke-opacity="0.53" stroke-miterlimit="10"/>
<path d="M344.128 934.294C351.711 938.028 354.897 947.298 351.203 954.832C347.398 962.597 337.855 965.318 330.635 961.813C322.78 957.998 319.403 947.648 323.513 941.131C326.27 936.758 332.899 933.306 338.585 936.015C344.3 938.735 346.933 946.685 343.87 951.347C342.006 954.184 337.533 956.569 333.832 954.754C330.21 952.978 328.509 947.748 330.438 944.908C331.55 943.27 334.157 941.996 336.11 942.983C338.191 944.042 338.853 947.337 337.944 948.32C337.724 948.557 337.21 948.878 336.85 948.691C336.573 948.555 336.446 948.135 336.497 947.663" stroke="#096455" stroke-opacity="0.53" stroke-miterlimit="10"/>
<path d="M339.464 1101.85C347.047 1105.58 350.232 1114.85 346.539 1122.39C342.734 1130.15 333.191 1132.88 325.971 1129.37C318.116 1125.55 314.739 1115.2 318.849 1108.69C321.606 1104.32 328.235 1100.86 333.921 1103.57C339.636 1106.29 342.269 1114.24 339.206 1118.9C337.342 1121.74 332.869 1124.13 329.168 1122.31C325.546 1120.53 323.845 1115.3 325.774 1112.46C326.886 1110.83 329.493 1109.55 331.446 1110.54C333.527 1111.6 334.189 1114.89 333.28 1115.88C333.06 1116.11 332.546 1116.43 332.186 1116.25C331.909 1116.11 331.782 1115.69 331.833 1115.22" stroke="#096455" stroke-opacity="0.53" stroke-miterlimit="10"/>
<path d="M368.628 694.862C372.224 708.373 364.138 722.425 350.733 726.017C336.918 729.723 323.147 720.792 319.662 707.983C315.871 694.045 325.095 678.578 337.685 676.611C346.133 675.29 357.646 679.795 360.456 689.827C363.282 699.907 356.24 711.835 347.1 713.089C341.536 713.853 333.7 710.873 331.935 704.288C330.208 697.843 334.875 690.034 340.512 689.348C343.763 688.952 348.185 690.815 349.08 694.322C350.024 698.068 346.638 702.477 344.425 702.412C343.891 702.397 342.931 702.105 342.772 701.453C342.64 700.96 343.025 700.345 343.67 699.896" stroke="#096455" stroke-opacity="0.53" stroke-miterlimit="10"/>
<path d="M41.0452 540C54.1065 540.022 64.832 550.717 64.832 563.681C64.8357 577.044 53.4465 587.312 41.0452 587.359C27.5512 587.41 15.8246 575.347 17.0933 563.51C17.944 555.567 24.7937 546.267 34.5255 546.158C44.305 546.044 53.3658 555.283 52.2877 563.835C51.6314 569.04 47.0478 575.391 40.6785 575.391C34.4448 575.391 28.5266 569.292 29.2709 564.039C29.6999 561.01 32.4501 557.469 35.8309 557.509C39.4391 557.564 42.5999 561.685 42.0059 563.667C41.8629 564.145 41.3679 564.941 40.7408 564.926C40.2641 564.926 39.8021 564.43 39.5528 563.74" stroke="#096455" stroke-opacity="0.53" stroke-miterlimit="10"/>
<path d="M75.4925 1092C84.7128 1101.25 84.7346 1116.4 75.567 1125.57C66.1207 1135.02 50.8071 1134.23 42.0045 1125.49C32.4266 1115.99 32.6648 1099.16 41.932 1091.69C48.1497 1086.68 59.5695 1084.94 66.5283 1091.75C73.5235 1098.58 73.398 1111.52 66.5885 1116.81C62.4439 1120.02 54.712 1121.27 50.2082 1116.77C45.8003 1112.36 45.9283 1103.86 50.1686 1100.68C52.6142 1098.84 57.0624 1098.28 59.4246 1100.7C61.9372 1103.29 61.2584 1108.44 59.4369 1109.42C58.9976 1109.65 58.0849 1109.87 57.6519 1109.41C57.3148 1109.08 57.3391 1108.4 57.6506 1107.73" stroke="#096455" stroke-opacity="0.53" stroke-miterlimit="10"/>
<path d="M36.0188 824.9C42.0145 818.925 51.8797 818.96 57.8805 824.961C64.0671 831.144 63.6002 841.116 57.939 846.821C51.7788 853.028 40.8213 852.818 35.924 846.758C32.6376 842.692 31.472 835.249 35.8811 830.738C40.3103 826.204 48.7385 826.328 52.2028 830.78C54.3111 833.49 55.1502 838.53 52.2314 841.449C49.3747 844.306 43.8395 844.195 41.7495 841.423C40.5439 839.824 40.1655 836.925 41.7334 835.394C43.4123 833.766 46.7681 834.225 47.4133 835.414C47.569 835.701 47.7105 836.296 47.4164 836.577C47.1979 836.795 46.7564 836.777 46.3229 836.572" stroke="#096455" stroke-opacity="0.53" stroke-miterlimit="10"/>
<path d="M329.019 447.901C335.015 441.925 344.88 441.96 350.88 447.961C357.067 454.144 356.6 464.116 350.939 469.821C344.779 476.029 333.821 475.819 328.924 469.759C325.638 465.693 324.472 458.249 328.881 453.739C333.31 449.205 341.739 449.328 345.203 453.781C347.311 456.491 348.15 461.531 345.231 464.45C342.375 467.306 336.84 467.195 334.75 464.423C333.544 462.824 333.165 459.925 334.733 458.395C336.412 456.766 339.768 457.225 340.413 458.415C340.569 458.702 340.71 459.297 340.416 459.577C340.198 459.796 339.756 459.778 339.323 459.573" stroke="#096455" stroke-opacity="0.53" stroke-miterlimit="10"/>
<path d="M296.36 239.182C305.26 230.312 319.905 230.363 328.813 239.272C337.997 248.451 337.304 263.253 328.9 271.722C319.755 280.937 303.489 280.626 296.219 271.63C291.34 265.594 289.61 254.544 296.155 247.848C302.73 241.118 315.242 241.301 320.385 247.911C323.514 251.933 324.76 259.415 320.427 263.748C316.186 267.989 307.969 267.825 304.867 263.709C303.077 261.336 302.515 257.032 304.843 254.76C307.335 252.343 312.317 253.024 313.275 254.79C313.506 255.216 313.716 256.099 313.279 256.516C312.955 256.84 312.299 256.813 311.656 256.509" stroke="#096455" stroke-opacity="0.53" stroke-miterlimit="10"/>
</svg>
