<svg width="145" height="145" viewBox="0 0 145 145" fill="none" xmlns="http://www.w3.org/2000/svg">
<circle cx="72.5" cy="72.5" r="72.5" fill="#E46F0A"/>
<path d="M93.5625 34C97.2915 33.9995 100.881 35.3439 103.603 37.7607C106.325 40.1775 107.976 43.4856 108.221 47.014L108.25 47.9277V62.1339C111.398 62.7435 114.249 64.3155 116.365 66.6088C118.481 68.9021 119.746 71.7902 119.965 74.8303L120 75.783V109.209C120.001 109.905 119.728 110.577 119.233 111.091C118.739 111.606 118.059 111.926 117.328 111.989C116.597 112.051 115.867 111.853 115.283 111.431C114.699 111.009 114.303 110.396 114.172 109.711L114.125 109.209V95.2817H31.875V109.209C31.8764 109.905 31.6028 110.577 31.1083 111.091C30.6137 111.606 29.934 111.926 29.2029 111.989C28.4719 112.051 27.7425 111.853 27.1584 111.431C26.5743 111.009 26.1778 110.396 26.047 109.711L26 109.209V75.783C25.9993 72.5722 27.1685 69.4598 29.3097 66.9726C31.4508 64.4854 34.4325 62.776 37.75 62.1339V47.9277C37.7494 44.3916 39.1672 40.9877 41.7159 38.4065C44.2645 35.8252 47.7531 34.2598 51.474 34.0279L52.4375 34H93.5625ZM105.312 67.4264H40.6875C38.4977 67.4263 36.3864 68.1994 34.7649 69.5949C33.1433 70.9904 32.1278 72.9084 31.9161 74.9752L31.875 75.783V89.7106H114.125V75.783C114.125 73.7065 113.31 71.7044 111.838 70.1667C110.367 68.6291 108.344 67.6661 106.164 67.4654L105.312 67.4264ZM93.5625 39.5711H52.4375C50.2468 39.5712 48.1347 40.345 46.513 41.7417C44.8914 43.1383 43.8764 45.0577 43.6661 47.1254L43.625 47.9277V61.8553H49.5V59.0698C49.5 58.331 49.8095 57.6225 50.3604 57.1001C50.9113 56.5777 51.6584 56.2842 52.4375 56.2842H67.125C67.9041 56.2842 68.6512 56.5777 69.2021 57.1001C69.753 57.6225 70.0625 58.331 70.0625 59.0698V61.8553H75.9375V59.0698C75.9375 58.331 76.247 57.6225 76.7979 57.1001C77.3488 56.5777 78.0959 56.2842 78.875 56.2842H93.5625C94.3416 56.2842 95.0887 56.5777 95.6396 57.1001C96.1905 57.6225 96.5 58.331 96.5 59.0698V61.8553H102.375V47.9277C102.375 45.8512 101.56 43.8491 100.088 42.3114C98.6165 40.7738 96.5939 39.8108 94.4144 39.6101L93.5625 39.5711Z" fill="#FFF0D5"/>
</svg>
