<svg width="245" height="481" viewBox="0 0 245 481" fill="none" xmlns="http://www.w3.org/2000/svg">
<path d="M138.865 26.1653C134.289 11.0394 112.521 6.35098 101.358 3.97885C83.1282 0.0899246 64.1407 1.96235 47.0219 9.33708C36.752 13.8302 18.6959 21.728 16.3237 35.3468C15.5981 39.7562 16.9656 41.933 16.3237 56.7797C16.0168 64.2868 15.5144 67.552 16.7424 67.9427C19.5331 69.059 23.496 53.5146 36.2776 45.3656C51.6825 35.598 72.2503 41.1795 76.8271 42.5749C93.4599 46.9284 94.2134 54.2681 107.972 55.1053C110.456 55.2727 128.456 56.3611 136.27 44.1935C137.872 41.5089 138.926 38.5334 139.372 35.4391C139.817 32.3447 139.645 29.1928 138.865 26.1653Z" stroke="#096455" stroke-opacity="0.65" stroke-width="3" stroke-miterlimit="10"/>
<path d="M407.38 182.164C408.887 168.657 411.846 120.489 386.478 83.7065C377.854 71.0366 358.068 42.5151 324.16 38.5523C281.518 33.6685 250.652 71.7342 248.615 74.3296C230.084 97.9393 228.494 129.726 226.066 192.322C225.173 215.904 225.535 235.579 226.066 249.309C204.354 257.068 207.033 290.752 195.619 290.752C186.019 290.752 174.967 255.058 159.786 255.923C161.634 247.642 162.967 239.253 163.776 230.807C166.485 207.268 164.685 183.429 158.474 160.564C152.892 141.587 145.497 115.465 121.357 95.5951C116.557 91.6602 79.4958 61.2689 44.4719 75.725C20.1087 85.7438 10.7318 111.502 7.35503 120.796C-0.12417 141.335 0.99213 160.954 6.04338 185.736C14.4156 227.235 30.1833 264.491 51.086 301.05C76.705 345.841 100.371 372.493 145.218 423.005C184.288 467.071 194 471.899 202.205 474.718C262.457 495.369 327.119 436.931 332.114 432.298C373.361 394.009 384.161 325.748 387.092 306.38" stroke="#096455" stroke-opacity="0.65" stroke-width="3" stroke-miterlimit="10"/>
<path d="M228.893 393.271C245.244 390.235 257.219 380.882 255.641 372.38C254.062 363.879 239.527 359.449 223.176 362.485C206.825 365.522 194.85 374.875 196.429 383.376C198.007 391.877 212.542 396.308 228.893 393.271Z" stroke="#096455" stroke-opacity="0.65" stroke-width="3" stroke-miterlimit="10"/>
<path d="M150.305 390.159L287.498 365.572" stroke="#096455" stroke-opacity="0.65" stroke-width="3" stroke-miterlimit="10"/>
<mask id="mask0_318_1964" style="mask-type:luminance" maskUnits="userSpaceOnUse" x="15" y="2" width="125" height="66">
<path d="M138.621 26.1653C134.044 11.0394 112.277 6.35098 101.114 3.97885C82.8841 0.0899246 63.8966 1.96235 46.7778 9.33708C36.5079 13.8302 18.4517 21.728 16.0796 35.3468C15.354 39.7562 16.7215 41.933 16.0796 56.7797C15.7726 64.2868 15.2703 67.552 16.4982 67.9427C19.289 69.059 23.2518 53.5146 36.0334 45.3656C51.4383 35.598 72.0061 41.1795 76.5829 42.5749C93.2158 46.9284 93.9693 54.2681 107.728 55.1053C110.211 55.2727 128.212 56.3611 136.026 44.1935C137.628 41.5089 138.682 38.5334 139.127 35.4391C139.573 32.3447 139.401 29.1928 138.621 26.1653Z" fill="white"/>
</mask>
<g mask="url(#mask0_318_1964)">
<path d="M80.9836 -2.99854C80.9836 4.87137 76.63 11.2622 71.2718 11.2622C65.9135 11.2622 61.5879 4.87137 61.5879 -2.99854" stroke="#096455" stroke-opacity="0.65" stroke-width="3" stroke-miterlimit="10"/>
<path d="M100.408 -2.99902C100.408 4.87088 96.0544 11.2617 90.6962 11.2617C85.3379 11.2617 80.9844 4.87088 80.9844 -2.99902" stroke="#096455" stroke-opacity="0.65" stroke-width="3" stroke-miterlimit="10"/>
<path d="M119.802 -3.00049C119.802 4.86941 115.448 11.2602 110.09 11.2602C104.732 11.2602 100.406 4.86941 100.406 -3.00049" stroke="#096455" stroke-opacity="0.65" stroke-width="3" stroke-miterlimit="10"/>
<path d="M139.2 -3.00049C139.2 4.86941 134.875 11.2602 129.516 11.2602C124.158 11.2602 119.805 4.86941 119.805 -3.00049" stroke="#096455" stroke-opacity="0.65" stroke-width="3" stroke-miterlimit="10"/>
<path d="M71.5734 11.2603C71.5734 19.1302 67.2478 25.521 61.8895 25.521C56.5313 25.521 52.1777 19.0185 52.1777 11.2603" stroke="#096455" stroke-opacity="0.65" stroke-width="3" stroke-miterlimit="10"/>
<path d="M51.7941 11.2603C51.7941 19.1302 47.4406 25.521 42.0823 25.521C36.7241 25.521 32.3984 19.0185 32.3984 11.2603" stroke="#096455" stroke-opacity="0.65" stroke-width="3" stroke-miterlimit="10"/>
<path d="M61.5173 -3.00049C61.5173 4.86941 57.1638 11.2602 51.8055 11.2602C46.4473 11.2602 42.0938 4.86941 42.0938 -3.00049" stroke="#096455" stroke-opacity="0.65" stroke-width="3" stroke-miterlimit="10"/>
<path d="M61.5173 54.2119C61.5173 62.0818 57.1638 68.4726 51.8055 68.4726C46.4473 68.4726 42.0938 62.0818 42.0938 54.2119" stroke="#096455" stroke-opacity="0.65" stroke-width="3" stroke-miterlimit="10"/>
<path d="M51.7941 39.9492C51.7941 47.8191 47.4406 54.2099 42.0823 54.2099C36.7241 54.2099 32.3984 47.8191 32.3984 39.9492" stroke="#096455" stroke-opacity="0.65" stroke-width="3" stroke-miterlimit="10"/>
<path d="M91.0076 11.2612C91.0076 19.1311 86.654 25.5219 81.2958 25.5219C75.9375 25.5219 71.584 19.0195 71.584 11.2612" stroke="#096455" stroke-opacity="0.65" stroke-width="3" stroke-miterlimit="10"/>
<path d="M110.402 11.2622C110.402 19.1321 106.076 25.5229 100.718 25.5229C95.3594 25.5229 91.0059 19.0205 91.0059 11.2622" stroke="#096455" stroke-opacity="0.65" stroke-width="3" stroke-miterlimit="10"/>
<path d="M129.82 11.2622C129.82 19.1321 125.467 25.5229 120.108 25.5229C114.75 25.5229 110.396 19.0205 110.396 11.2622" stroke="#096455" stroke-opacity="0.65" stroke-width="3" stroke-miterlimit="10"/>
<path d="M149.23 11.2612C149.23 19.1311 144.876 25.5219 139.518 25.5219C134.16 25.5219 129.834 19.0195 129.834 11.2612" stroke="#096455" stroke-opacity="0.65" stroke-width="3" stroke-miterlimit="10"/>
<path d="M149.23 39.9497C149.23 47.8196 144.876 54.2104 139.518 54.2104C134.16 54.2104 129.834 47.8196 129.834 39.9497" stroke="#096455" stroke-opacity="0.65" stroke-width="3" stroke-miterlimit="10"/>
<path d="M80.9836 25.6895C80.9836 33.5594 76.63 39.9502 71.2718 39.9502C65.9135 39.9502 61.5879 33.5594 61.5879 25.6895" stroke="#096455" stroke-opacity="0.65" stroke-width="3" stroke-miterlimit="10"/>
<path d="M100.408 25.6895C100.408 33.5594 96.0544 39.9502 90.6962 39.9502C85.3379 39.9502 80.9844 33.5594 80.9844 25.6895" stroke="#096455" stroke-opacity="0.65" stroke-width="3" stroke-miterlimit="10"/>
<path d="M119.802 25.688C119.802 33.5579 115.448 39.9487 110.09 39.9487C104.732 39.9487 100.406 33.5579 100.406 25.688" stroke="#096455" stroke-opacity="0.65" stroke-width="3" stroke-miterlimit="10"/>
<path d="M139.2 25.6895C139.2 33.5594 134.875 39.9502 129.516 39.9502C124.158 39.9502 119.805 33.5594 119.805 25.6895" stroke="#096455" stroke-opacity="0.65" stroke-width="3" stroke-miterlimit="10"/>
<path d="M71.2726 39.9517C71.2726 47.8216 66.947 54.2124 61.5887 54.2124C56.2305 54.2124 51.877 47.8216 51.877 39.9517" stroke="#096455" stroke-opacity="0.65" stroke-width="3" stroke-miterlimit="10"/>
<path d="M90.697 39.9507C90.697 47.8206 86.3435 54.2114 80.9852 54.2114C75.627 54.2114 71.2734 47.8206 71.2734 39.9507" stroke="#096455" stroke-opacity="0.65" stroke-width="3" stroke-miterlimit="10"/>
<path d="M110.099 39.9517C110.099 47.8216 105.773 54.2124 100.415 54.2124C95.0567 54.2124 90.7031 47.8216 90.7031 39.9517" stroke="#096455" stroke-opacity="0.65" stroke-width="3" stroke-miterlimit="10"/>
<path d="M129.494 39.9521C129.494 47.822 125.14 54.2129 119.782 54.2129C114.424 54.2129 110.07 47.822 110.07 39.9521" stroke="#096455" stroke-opacity="0.65" stroke-width="3" stroke-miterlimit="10"/>
<path d="M80.9836 54.2119C80.9836 62.0818 76.63 68.4726 71.2718 68.4726C65.9135 68.4726 61.5879 62.0818 61.5879 54.2119" stroke="#096455" stroke-opacity="0.65" stroke-width="3" stroke-miterlimit="10"/>
<path d="M100.416 54.2129C100.416 62.0828 96.0622 68.4736 90.704 68.4736C85.3457 68.4736 80.9922 62.0828 80.9922 54.2129" stroke="#096455" stroke-opacity="0.65" stroke-width="3" stroke-miterlimit="10"/>
<path d="M119.81 54.2119C119.81 62.0818 115.456 68.4726 110.098 68.4726C104.74 68.4726 100.414 62.0818 100.414 54.2119" stroke="#096455" stroke-opacity="0.65" stroke-width="3" stroke-miterlimit="10"/>
<path d="M139.2 54.2114C139.2 62.0813 134.875 68.4721 129.516 68.4721C124.158 68.4721 119.805 62.0813 119.805 54.2114" stroke="#096455" stroke-opacity="0.65" stroke-width="3" stroke-miterlimit="10"/>
<path d="M22.3787 -2.99951C22.3787 4.87039 18.0251 11.2612 12.6669 11.2612C7.30864 11.2612 2.95508 4.87039 2.95508 -2.99951" stroke="#096455" stroke-opacity="0.65" stroke-width="3" stroke-miterlimit="10"/>
<path d="M41.7804 -2.99854C41.7804 4.87137 37.4548 11.2622 32.0966 11.2622C26.7383 11.2622 22.3848 4.87137 22.3848 -2.99854" stroke="#096455" stroke-opacity="0.65" stroke-width="3" stroke-miterlimit="10"/>
<path d="M61.199 -2.99756C61.199 4.87234 56.8454 11.2631 51.4872 11.2631C46.129 11.2631 41.7754 4.87234 41.7754 -2.99756" stroke="#096455" stroke-opacity="0.65" stroke-width="3" stroke-miterlimit="10"/>
<path d="M32.4001 11.2617C32.4001 19.1316 28.0466 25.5224 22.6884 25.5224C17.3301 25.5224 12.9766 19.02 12.9766 11.2617" stroke="#096455" stroke-opacity="0.65" stroke-width="3" stroke-miterlimit="10"/>
<path d="M51.7941 11.2603C51.7941 19.1302 47.4406 25.521 42.0823 25.521C36.7241 25.521 32.3984 19.0185 32.3984 11.2603" stroke="#096455" stroke-opacity="0.65" stroke-width="3" stroke-miterlimit="10"/>
<path d="M71.1847 11.2603C71.1847 19.1302 66.8591 25.521 61.5009 25.521C56.1426 25.521 51.7891 19.0185 51.7891 11.2603" stroke="#096455" stroke-opacity="0.65" stroke-width="3" stroke-miterlimit="10"/>
<path d="M71.1847 39.9492C71.1847 47.8191 66.8591 54.2099 61.5009 54.2099C56.1426 54.2099 51.7891 47.8191 51.7891 39.9492" stroke="#096455" stroke-opacity="0.65" stroke-width="3" stroke-miterlimit="10"/>
<path d="M22.3865 25.6899C22.3865 33.5598 18.0329 39.9506 12.6747 39.9506C7.31645 39.9506 2.96289 33.5598 2.96289 25.6899" stroke="#096455" stroke-opacity="0.65" stroke-width="3" stroke-miterlimit="10"/>
<path d="M41.7804 25.6909C41.7804 33.5608 37.4548 39.9516 32.0966 39.9516C26.7383 39.9516 22.3848 33.5608 22.3848 25.6909" stroke="#096455" stroke-opacity="0.65" stroke-width="3" stroke-miterlimit="10"/>
<path d="M61.199 25.6909C61.199 33.5608 56.8454 39.9516 51.4872 39.9516C46.129 39.9516 41.7754 33.5608 41.7754 25.6909" stroke="#096455" stroke-opacity="0.65" stroke-width="3" stroke-miterlimit="10"/>
<path d="M32.0896 39.9502C32.0896 47.8201 27.736 54.2109 22.3778 54.2109C17.0196 54.2109 12.666 47.8201 12.666 39.9502" stroke="#096455" stroke-opacity="0.65" stroke-width="3" stroke-miterlimit="10"/>
<path d="M51.4914 39.9521C51.4914 47.822 47.1378 54.2129 41.7796 54.2129C36.4214 54.2129 32.0957 47.822 32.0957 39.9521" stroke="#096455" stroke-opacity="0.65" stroke-width="3" stroke-miterlimit="10"/>
<path d="M22.3787 54.2119C22.3787 62.0818 18.0251 68.4726 12.6669 68.4726C7.30864 68.4726 2.95508 62.0818 2.95508 54.2119" stroke="#096455" stroke-opacity="0.65" stroke-width="3" stroke-miterlimit="10"/>
<path d="M41.7804 54.2104C41.7804 62.0803 37.4548 68.4712 32.0966 68.4712C26.7383 68.4712 22.3848 62.0803 22.3848 54.2104" stroke="#096455" stroke-opacity="0.65" stroke-width="3" stroke-miterlimit="10"/>
<path d="M61.199 54.21C61.199 62.0799 56.8454 68.4707 51.4872 68.4707C46.129 68.4707 41.7754 62.0799 41.7754 54.21" stroke="#096455" stroke-opacity="0.65" stroke-width="3" stroke-miterlimit="10"/>
</g>
<path d="M73.632 181.72C105.598 181.72 131.512 170.75 131.512 157.218C131.512 143.685 105.598 132.715 73.632 132.715C41.6657 132.715 15.752 143.685 15.752 157.218C15.752 170.75 41.6657 181.72 73.632 181.72Z" stroke="#096455" stroke-opacity="0.65" stroke-width="3" stroke-miterlimit="10"/>
<path d="M73.6353 181.72C87.3219 181.72 98.4171 170.75 98.4171 157.218C98.4171 143.685 87.3219 132.715 73.6353 132.715C59.9487 132.715 48.8535 143.685 48.8535 157.218C48.8535 170.75 59.9487 181.72 73.6353 181.72Z" stroke="#096455" stroke-opacity="0.65" stroke-width="3" stroke-miterlimit="10"/>
</svg>
