<svg width="70" height="329" viewBox="0 0 70 329" fill="none" xmlns="http://www.w3.org/2000/svg">
<mask id="mask0_294_11055" style="mask-type:luminance" maskUnits="userSpaceOnUse" x="-6" y="0" width="76" height="319">
<path d="M69.9992 0H-5.5V318.424H69.9992V0Z" fill="white"/>
</mask>
<g mask="url(#mask0_294_11055)">
<path d="M-5.63477 0.687314C-1.88351 0.604869 26.1066 4.48666 43.3308 18.7291C55.2441 28.5881 62.3688 43.5726 65.749 52.3324C67.3406 56.4507 68.2054 60.8141 68.3048 65.2282C68.8132 86.4441 70.366 158.274 68.1605 162.699C66.7109 171.294 60.287 203.235 31.548 224.89C17.8071 235.196 2.6922 241.104 -5.60728 241.51" stroke="#096455" stroke-opacity="0.57" stroke-width="2" stroke-miterlimit="10"/>
<path d="M35.4489 102.818C49.7046 102.818 61.2611 98.4838 61.2611 93.1375C61.2611 87.7911 49.7046 83.457 35.4489 83.457C21.1932 83.457 9.63672 87.7911 9.63672 93.1375C9.63672 98.4838 21.1932 102.818 35.4489 102.818Z" stroke="#096455" stroke-opacity="0.57" stroke-width="2" stroke-miterlimit="10"/>
<path d="M35.4479 102.818C40.2441 102.818 44.1321 98.4838 44.1321 93.1375C44.1321 87.7911 40.2441 83.457 35.4479 83.457C30.6517 83.457 26.7637 87.7911 26.7637 93.1375C26.7637 98.4838 30.6517 102.818 35.4479 102.818Z" stroke="#096455" stroke-opacity="0.57" stroke-width="2" stroke-miterlimit="10"/>
<path d="M68.778 92.62C69.1353 90.3184 68.091 79.1677 60.6366 70.0163C51.6432 58.9755 36.9679 60.1366 32.6052 60.4595C21.6125 61.332 7.6518 67.275 2.45775 79.2295C-0.558368 86.1618 0.554644 92.3933 2.76005 103.846C7.19148 126.807 17.3597 140.328 12.6054 144.767C11.6641 145.646 9.62361 145.969 5.52883 146.615C1.76277 147.203 -2.06304 147.307 -5.85547 146.924" stroke="#096455" stroke-opacity="0.57" stroke-width="2" stroke-miterlimit="10"/>
<path d="M69.0362 138.584C66.0545 139.408 47.9715 144.499 39.6858 160.48C31.9977 175.293 37.0406 194.544 47.9303 208.786" stroke="#096455" stroke-opacity="0.57" stroke-width="2" stroke-miterlimit="10"/>
<path d="M40.75 216.928C40.75 231.191 41.6706 251.555 44.5013 269.961C47.0156 286.311 50.7801 302.444 55.7619 318.219" stroke="#096455" stroke-opacity="0.57" stroke-width="2" stroke-miterlimit="10"/>
<path d="M5.86306 146.794C4.88641 149.9 4.21677 153.094 3.86376 156.33C3.32057 161.324 3.51269 166.37 4.43401 171.308" stroke="#096455" stroke-opacity="0.57" stroke-width="2" stroke-miterlimit="10"/>
</g>
<path d="M-5.50211 208.615C-18.7827 208.615 -29.5898 199.684 -29.5898 188.691C-29.5898 177.698 -18.7827 168.767 -5.50211 168.767C7.77843 168.767 18.5788 177.698 18.5788 188.691C18.5788 199.684 7.77843 208.615 -5.50211 208.615ZM-5.50211 170.141C-18.0269 170.141 -28.2158 178.461 -28.2158 188.691C-28.2158 198.921 -18.0269 207.241 -5.50211 207.241C7.02269 207.241 17.2047 198.921 17.2047 188.691C17.2047 178.461 7.01582 170.154 -5.50211 170.154V170.141Z" fill="#096455"/>
<path d="M25.8561 188.01H-36.5137V189.384H25.8561V188.01Z" fill="#096455"/>
<path d="M-7.96332 329.005C-32.4564 329.005 -52.786 322.719 -66.3208 318.528L-67.0078 318.315L-66.6025 317.002L-65.9154 317.215C-52.1746 321.461 -31.4739 327.865 -6.5961 327.624C14.5683 327.439 35.5692 323.896 55.6225 317.126L56.0622 318.425C35.8725 325.245 14.7274 328.814 -6.58237 328.998L-7.96332 329.005Z" fill="#096455"/>
<path d="M-1.7925 11.6814H-3.33147C-14.8763 11.6194 -26.408 10.8923 -37.8691 9.50348L-37.7042 8.12939C-26.3047 9.5114 -14.835 10.2363 -3.35209 10.3005C7.23874 10.3527 17.8249 9.84356 28.3618 8.77522L28.4992 10.1493C18.4341 11.1676 8.32405 11.6789 -1.7925 11.6814Z" fill="#096455"/>
<path d="M-1.79325 27.3667H-3.33222C-21.5299 27.2674 -39.6808 25.5128 -57.5605 22.1246L-57.2995 20.7505C-39.5036 24.1227 -21.4377 25.8681 -3.32536 25.9651C13.7243 26.0464 30.7496 24.6673 47.5639 21.8429L47.7907 23.217C31.4062 25.9718 14.8212 27.3599 -1.79325 27.3667Z" fill="#096455"/>
<path d="M-1.78188 43.0775H-3.32773C-25.1509 42.9536 -46.8957 40.454 -68.1777 35.6231L-67.8754 34.249C-46.6814 39.0604 -25.0263 41.5484 -3.29337 41.6691C17.2418 41.7661 37.7322 39.747 57.8535 35.6437L58.1283 37.0178C38.4119 41.0415 18.3408 43.0716 -1.78188 43.0775Z" fill="#096455"/>
<path d="M-1.78747 58.7966H-3.32644C-27.6457 58.6605 -51.8583 55.569 -75.4316 49.5902L-75.095 48.2573C-51.6292 54.2066 -27.5274 57.2819 -3.31957 57.4156C19.6181 57.5235 42.4918 54.9876 64.8489 49.8581L65.158 51.2322C43.1979 56.2605 20.741 58.7979 -1.78747 58.7966Z" fill="#096455"/>
<path d="M58.4662 68.3885L58.1914 67.0145C61.4755 66.3274 64.7939 65.5991 68.0505 64.8159L68.3734 66.1488C65.0756 66.9664 61.7434 67.7084 58.4662 68.3885Z" fill="#096455"/>
<path d="M-1.79458 74.5122H-3.33356C-7.88179 74.5122 -12.4918 74.3611 -17.0332 74.1275L-16.9645 72.7534C-12.4438 72.9801 -7.85431 73.1107 -3.32669 73.1313C-0.331184 73.1313 2.69868 73.1313 5.68732 73.042V74.4161C3.23457 74.4779 0.713125 74.5122 -1.79458 74.5122Z" fill="#096455"/>
<path d="M67.027 82.2062L66.7109 80.8734L68.5866 80.4199L68.9164 81.794L67.027 82.2062Z" fill="#096455"/>
<path d="M-1.76901 90.2226H-3.3286C-6.1386 90.2226 -8.98296 90.1539 -11.793 90.0577L-11.7449 88.6836C-8.94861 88.7798 -6.118 88.8347 -3.32173 88.8485C-2.02322 88.8485 -0.731578 88.8485 0.553193 88.8485V90.2226H-1.76901Z" fill="#096455"/>
<path d="M-1.78242 105.943H-3.32826C-6.8734 105.943 -10.4666 105.84 -13.998 105.696L-13.9431 104.322C-10.4254 104.466 -6.8528 104.549 -3.3214 104.569C-1.17782 104.569 0.993238 104.569 3.15055 104.535V105.909C1.52226 105.929 -0.133512 105.943 -1.78242 105.943Z" fill="#096455"/>
<path d="M-1.78095 121.656H-3.3268C-8.3216 121.656 -13.3851 121.477 -18.373 121.202L-18.2975 119.828C-13.3301 120.103 -8.29413 120.261 -3.31993 120.282C0.28017 120.282 3.92151 120.282 7.50787 120.144L7.54909 121.518C4.4574 121.608 1.33135 121.656 -1.78095 121.656Z" fill="#096455"/>
<path d="M-1.77875 137.367H-3.3246C-10.1538 137.326 -17.0655 137.058 -23.8672 136.549L-23.771 135.175C-16.9968 135.677 -10.1126 135.945 -3.31773 135.986C2.06182 135.986 7.51007 135.89 12.869 135.629L12.9377 137.003C8.05971 137.243 3.11987 137.367 -1.77875 137.367Z" fill="#096455"/>
<path d="M50.6741 148.451L50.4336 147.076C56.6651 145.97 62.9515 144.637 69.1143 143.133L69.4372 144.466C63.2744 146.005 56.933 147.338 50.6741 148.451Z" fill="#096455"/>
<path d="M37.6943 166.182L37.5156 164.808C47.9146 163.417 58.2342 161.486 68.4326 159.023L68.7555 160.356C58.5108 162.84 48.1428 164.785 37.6943 166.182Z" fill="#096455"/>
<path d="M36.4139 182.067L36.2422 180.693C45.7783 179.463 55.3901 177.745 64.7957 175.595L65.098 176.969C55.6512 179.112 45.9982 180.83 36.4139 182.067Z" fill="#096455"/>
<path d="M40.7881 197.183L40.5957 195.808C46.3256 194.984 52.1174 193.981 57.8061 192.82L58.0878 194.194C52.3648 195.348 46.5455 196.358 40.7881 197.183Z" fill="#096455"/>
<path d="M-1.77748 247.371H-3.3302C-19.8136 247.291 -36.2632 245.869 -52.5156 243.118L-52.2889 241.744C-36.1095 244.486 -19.7333 245.904 -3.32333 245.983C11.677 246.06 26.6628 245.036 41.5131 242.919L41.7123 244.293C27.3069 246.347 12.7737 247.375 -1.77748 247.371Z" fill="#096455"/>
<path d="M-1.79029 263.091H-3.32927C-20.3393 262.997 -37.3106 261.459 -54.0605 258.494L-53.8201 257.12C-37.1473 260.071 -20.2541 261.602 -3.3224 261.696C12.1473 261.771 27.5995 260.645 42.895 258.329L43.1011 259.703C28.2432 261.954 13.2372 263.087 -1.79029 263.091Z" fill="#096455"/>
<path d="M-1.79234 278.803H-3.33131C-21.062 278.708 -38.7493 277.042 -56.1855 273.822L-55.9313 272.448C-38.5769 275.654 -20.9723 277.314 -3.32444 277.409C12.9157 277.487 29.1354 276.244 45.1739 273.692L45.3938 275.066C29.7882 277.553 14.0103 278.803 -1.79234 278.803Z" fill="#096455"/>
<path d="M-1.7949 294.516H-3.33388C-22.0148 294.422 -40.646 292.582 -58.9844 289.02L-58.7233 287.646C-40.4736 291.197 -21.9324 293.037 -3.34074 293.142C13.8668 293.225 31.0494 291.823 48.0157 288.951L48.2493 290.325C31.7142 293.117 14.9743 294.519 -1.7949 294.516Z" fill="#096455"/>
<path d="M-1.79063 310.236H-3.32961C-23.2284 310.128 -43.0671 308.04 -62.5527 304.005L-62.2779 302.631C-42.8795 306.639 -23.1308 308.711 -3.32274 308.814C15.1481 308.912 33.5879 307.288 51.7575 303.964L52.0048 305.338C34.2568 308.585 16.252 310.224 -1.79063 310.236Z" fill="#096455"/>
<path d="M24.9297 229.994L25.1494 228.442C30.5977 227.961 35.7575 227.5 41.1645 226.724L41.3569 228.098C35.9293 228.868 30.3986 229.507 24.9297 229.994Z" fill="#096455"/>
</svg>
