<svg width="8" height="8" viewBox="0 0 8 8" fill="none" xmlns="http://www.w3.org/2000/svg">
<path d="M3.52623 0.377162C3.57559 0.27275 3.65198 0.184832 3.74676 0.123355C3.84154 0.0618784 3.95092 0.0292969 4.06253 0.0292969C4.17413 0.0292969 4.28351 0.0618784 4.37829 0.123355C4.47307 0.184832 4.54946 0.27275 4.59882 0.377162L5.42999 2.13297L7.28815 2.41442C7.39861 2.43116 7.50238 2.4798 7.58771 2.55486C7.67304 2.62992 7.73652 2.7284 7.77098 2.83914C7.80543 2.94989 7.80949 3.06848 7.78268 3.1815C7.75586 3.29452 7.69926 3.39746 7.61927 3.47867L6.27461 4.84542L6.59227 6.77587C6.61117 6.89054 6.59894 7.00843 6.55697 7.11623C6.515 7.22403 6.44495 7.31743 6.35476 7.38589C6.26456 7.45434 6.15781 7.49511 6.04656 7.5036C5.93532 7.51208 5.82401 7.48794 5.72523 7.4339L4.06215 6.5217L2.39982 7.4339C2.30104 7.48794 2.18973 7.51208 2.07849 7.5036C1.96724 7.49511 1.86049 7.45434 1.77029 7.38589C1.6801 7.31743 1.61006 7.22403 1.56808 7.11623C1.52611 7.00843 1.51388 6.89054 1.53278 6.77587L1.8497 4.84542L0.505033 3.47867C0.425028 3.39741 0.368434 3.29441 0.341661 3.18133C0.314888 3.06825 0.319004 2.94961 0.353544 2.83885C0.388085 2.72808 0.451669 2.62962 0.537095 2.55461C0.622522 2.4796 0.726378 2.43104 0.836901 2.41442L2.69506 2.13375L3.52623 0.377162ZM4.0629 1.00557L3.3304 2.55165C3.28762 2.64225 3.22439 2.72066 3.14614 2.78015C3.06789 2.83963 2.97697 2.87841 2.88118 2.89314L1.24426 3.14107L2.42897 4.34487C2.49837 4.41546 2.55028 4.50258 2.58023 4.59875C2.61018 4.69491 2.61727 4.79722 2.60089 4.89688L2.32134 6.59654L3.78485 5.79349C3.87061 5.7465 3.96603 5.72195 4.0629 5.72195C4.15977 5.72195 4.25519 5.7465 4.34095 5.79349L5.80446 6.59654L5.52491 4.89688C5.50853 4.79722 5.51562 4.69491 5.54557 4.59875C5.57552 4.50258 5.62743 4.41546 5.69683 4.34487L6.88079 3.14029L5.24462 2.89236C5.1487 2.87775 5.05762 2.83903 4.97923 2.77954C4.90085 2.72005 4.8375 2.64157 4.79465 2.55087L4.0629 1.00557Z" fill="#F1BA11"/>
</svg>
