<svg width="17" height="16" viewBox="0 0 17 16" fill="none" xmlns="http://www.w3.org/2000/svg">
<path d="M0 14.7692V1.23077C0 0.904349 0.137774 0.591298 0.383014 0.360484C0.628254 0.12967 0.960871 0 1.30769 0H15.6923C16.0391 0 16.3717 0.12967 16.617 0.360484C16.8622 0.591298 17 0.904349 17 1.23077V14.7692C17 15.0957 16.8622 15.4087 16.617 15.6395C16.3717 15.8703 16.0391 16 15.6923 16H11.7692V10.1662H12.6977C12.9093 10.1662 13.1122 10.0871 13.2617 9.94626C13.4113 9.80546 13.4954 9.6145 13.4954 9.41538V8.46769C13.495 8.26868 13.4109 8.0779 13.2614 7.93718C13.1118 7.79645 12.9091 7.71725 12.6977 7.71692H11.8215V6.56C11.8215 5.52615 12.3185 5.52615 12.8154 5.52615H13.4562C13.5614 5.53023 13.6663 5.51251 13.7635 5.47423C13.8606 5.43595 13.9477 5.37804 14.0185 5.30462C14.0945 5.23652 14.1546 5.15433 14.1951 5.06324C14.2356 4.97214 14.2556 4.87413 14.2538 4.77538V3.86462C14.2577 3.76431 14.2404 3.66429 14.203 3.5703C14.1655 3.47632 14.1087 3.39024 14.0358 3.31701C13.9629 3.24379 13.8752 3.18488 13.778 3.14367C13.6808 3.10247 13.5758 3.07978 13.4692 3.07692H11.9654C11.5266 3.0614 11.0894 3.13571 10.6841 3.29472C10.2788 3.45373 9.91502 3.69365 9.61785 3.99791C9.32068 4.30217 9.09723 4.66352 8.96294 5.057C8.82864 5.45048 8.78669 5.8667 8.84 6.27692V7.71692H8.00308C7.89723 7.71529 7.79209 7.7335 7.6938 7.7705C7.5955 7.8075 7.50601 7.86254 7.43055 7.93242C7.35509 8.0023 7.29516 8.08562 7.25425 8.17751C7.21335 8.26941 7.19229 8.36806 7.19231 8.46769V9.41538C7.19229 9.51502 7.21335 9.61366 7.25425 9.70556C7.29516 9.79746 7.35509 9.88078 7.43055 9.95066C7.50601 10.0205 7.5955 10.0756 7.6938 10.1126C7.79209 10.1496 7.89723 10.1678 8.00308 10.1662H8.84V16H1.30769C0.960871 16 0.628254 15.8703 0.383014 15.6395C0.137774 15.4087 0 15.0957 0 14.7692Z" fill="#EE7206"/>
</svg>
