<svg width="20" height="19" viewBox="0 0 20 19" fill="none" xmlns="http://www.w3.org/2000/svg">
<path d="M10 0C7.28625 0 6.945 0.011875 5.87875 0.057C4.8125 0.1045 4.08625 0.263625 3.45 0.49875C2.78231 0.736637 2.17768 1.11079 1.67875 1.59481C1.16925 2.06879 0.775407 2.64319 0.525 3.2775C0.2775 3.88075 0.10875 4.57187 0.06 5.58125C0.0125 6.59656 0 6.91956 0 9.50119C0 12.0804 0.0125 12.4034 0.06 13.4164C0.11 14.4281 0.2775 15.1181 0.525 15.7225C0.78125 16.3471 1.1225 16.8767 1.67875 17.4052C2.23375 17.9336 2.79125 18.259 3.44875 18.5012C4.08625 18.7364 4.81125 18.8967 5.87625 18.943C6.94375 18.9881 7.28375 19 10 19C12.7163 19 13.055 18.9881 14.1225 18.943C15.1863 18.8955 15.915 18.7364 16.5513 18.5012C17.2185 18.2632 17.8227 17.8891 18.3212 17.4052C18.8775 16.8767 19.2188 16.3471 19.475 15.7225C19.7213 15.1181 19.89 14.4281 19.94 13.4164C19.9875 12.4034 20 12.0804 20 9.5C20 6.91956 19.9875 6.59656 19.94 5.58244C19.89 4.57188 19.7213 3.88075 19.475 3.2775C19.2246 2.64319 18.8308 2.06879 18.3212 1.59481C17.8223 1.11079 17.2177 0.736637 16.55 0.49875C15.9125 0.263625 15.185 0.103312 14.1213 0.057C13.0538 0.011875 12.715 0 9.9975 0H10ZM9.10375 1.71238H10.0013C12.6713 1.71238 12.9875 1.72069 14.0413 1.767C15.0162 1.80856 15.5462 1.96413 15.8988 2.09356C16.365 2.26575 16.6987 2.47237 17.0487 2.80487C17.3988 3.13737 17.615 3.45325 17.7963 3.89738C17.9338 4.23106 18.0963 4.73456 18.14 5.66081C18.1887 6.66188 18.1987 6.96231 18.1987 9.49763C18.1987 12.0329 18.1887 12.3346 18.14 13.3356C18.0963 14.2619 17.9325 14.7642 17.7963 15.0991C17.6348 15.511 17.3791 15.8838 17.0475 16.1904C16.6975 16.5229 16.365 16.7283 15.8975 16.9005C15.5475 17.0311 15.0175 17.1855 14.0413 17.2283C12.9875 17.2734 12.6713 17.2841 10.0013 17.2841C7.33125 17.2841 7.01375 17.2734 5.96 17.2283C4.985 17.1855 4.45625 17.0311 4.10375 16.9005C3.66979 16.7476 3.277 16.5051 2.95375 16.1904C2.62159 15.8835 2.36541 15.5104 2.20375 15.0979C2.0675 14.7642 1.90375 14.2607 1.86 13.3344C1.8125 12.3334 1.8025 12.0329 1.8025 9.49525C1.8025 6.95756 1.8125 6.6595 1.86 5.65844C1.905 4.73219 2.0675 4.22869 2.205 3.89381C2.38625 3.45088 2.60375 3.13381 2.95375 2.80131C3.30375 2.46881 3.63625 2.26338 4.10375 2.09119C4.45625 1.96056 4.985 1.80619 5.96 1.76344C6.8825 1.72306 7.24 1.71119 9.10375 1.71V1.71238ZM15.3387 3.28938C15.1812 3.28938 15.0251 3.31886 14.8795 3.37615C14.7339 3.43344 14.6017 3.51741 14.4902 3.62327C14.3788 3.72913 14.2904 3.8548 14.2301 3.99312C14.1698 4.13143 14.1388 4.27967 14.1388 4.42938C14.1388 4.57908 14.1698 4.72732 14.2301 4.86563C14.2904 5.00394 14.3788 5.12962 14.4902 5.23548C14.6017 5.34134 14.7339 5.42531 14.8795 5.4826C15.0251 5.53989 15.1812 5.56938 15.3387 5.56938C15.657 5.56938 15.9622 5.44927 16.1873 5.23548C16.4123 5.02169 16.5387 4.73172 16.5387 4.42938C16.5387 4.12703 16.4123 3.83706 16.1873 3.62327C15.9622 3.40948 15.657 3.28938 15.3387 3.28938ZM10.0013 4.62175C9.32009 4.61165 8.64362 4.73039 8.01122 4.97104C7.37883 5.2117 6.80314 5.56946 6.31769 6.0235C5.83223 6.47755 5.4467 7.0188 5.18355 7.61575C4.9204 8.21269 4.78488 8.85341 4.78488 9.50059C4.78488 10.1478 4.9204 10.7885 5.18355 11.3854C5.4467 11.9824 5.83223 12.5236 6.31769 12.9777C6.80314 13.4317 7.37883 13.7895 8.01122 14.0301C8.64362 14.2708 9.32009 14.3895 10.0013 14.3794C11.3494 14.3595 12.6353 13.8366 13.5812 12.9239C14.5272 12.0111 15.0574 10.7815 15.0574 9.50059C15.0574 8.21967 14.5272 6.99011 13.5812 6.07733C12.6353 5.16454 11.3494 4.64173 10.0013 4.62175ZM10.0013 6.33294C10.439 6.33294 10.8726 6.41486 11.277 6.57402C11.6815 6.73318 12.049 6.96646 12.3586 7.26055C12.6681 7.55464 12.9137 7.90377 13.0812 8.28802C13.2488 8.67226 13.335 9.0841 13.335 9.5C13.335 9.9159 13.2488 10.3277 13.0812 10.712C12.9137 11.0962 12.6681 11.4454 12.3586 11.7395C12.049 12.0335 11.6815 12.2668 11.277 12.426C10.8726 12.5851 10.439 12.6671 10.0013 12.6671C9.11709 12.6671 8.26913 12.3334 7.64393 11.7395C7.01873 11.1455 6.6675 10.34 6.6675 9.5C6.6675 8.66004 7.01873 7.85449 7.64393 7.26055C8.26913 6.66661 9.11709 6.33294 10.0013 6.33294Z" fill="#EE7206"/>
</svg>
