<svg width="193" height="196" viewBox="0 0 193 196" fill="none" xmlns="http://www.w3.org/2000/svg">
<path d="M31.8504 176.822V150.581H63.6902V134.625H0V195.731H63.6902V176.822H31.8504Z" fill="#F8E4C1"/>
<path d="M155.416 180.1L174.661 195.731H193.002V132.65H174.167V148.869L154.198 132.65H136.256V195.731H155.416V180.1Z" fill="#F8E4C1"/>
<path d="M99.8029 132.65C81.4826 132.65 66.6289 146.768 66.6289 164.164C66.6289 181.581 81.4826 195.678 99.8029 195.678C118.123 195.678 132.966 181.549 132.966 164.164C132.966 146.779 118.123 132.65 99.8029 132.65ZM90.3486 171.055C90.1083 171.908 89.6772 172.694 89.088 173.356C88.4781 174.037 87.7197 174.569 86.8715 174.91C85.8201 175.315 84.6992 175.508 83.573 175.478C82.5056 175.542 81.4393 175.334 80.4745 174.873C79.5097 174.411 78.6781 173.712 78.0581 172.841C76.8185 171.087 76.1882 168.524 76.1882 165.152C76.1892 163.902 76.3372 162.658 76.6294 161.443C76.9018 160.265 77.382 159.144 78.0476 158.134C78.6869 157.174 79.5342 156.37 80.5267 155.781C81.6363 155.153 82.897 154.84 84.1718 154.878C84.6765 154.881 85.1797 154.934 85.674 155.035C86.2032 155.143 86.7179 155.312 87.2077 155.54C87.7151 155.774 88.1914 156.07 88.6258 156.422C89.0734 156.792 89.4537 157.236 89.7498 157.735L88.6153 160.225C88.5582 159.365 88.3704 158.518 88.0586 157.714C87.8166 157.134 87.4592 156.608 87.0081 156.17C86.6381 155.798 86.1788 155.526 85.674 155.382C85.1697 155.231 84.6457 155.157 84.1193 155.162C83.4087 155.128 82.7136 155.377 82.1864 155.855C81.6728 156.344 81.2838 156.949 81.0519 157.62C80.7654 158.416 80.5818 159.245 80.5057 160.088C80.4096 160.999 80.3605 161.914 80.3586 162.83C80.8595 162.366 81.4491 162.009 82.0919 161.78C82.6786 161.587 83.2918 161.488 83.9092 161.485C84.6984 161.488 85.4846 161.584 86.2518 161.769C87.0518 161.954 87.8013 162.313 88.4472 162.82C89.1452 163.379 89.6967 164.1 90.0545 164.92C90.512 165.969 90.7274 167.107 90.6847 168.25C90.7059 169.194 90.5855 170.136 90.3276 171.045L90.3486 171.055ZM106.662 171.055C106.417 171.921 105.976 172.719 105.373 173.388C104.77 174.056 104.022 174.577 103.185 174.91C102.131 175.316 101.006 175.509 99.8764 175.478C98.8107 175.54 97.7465 175.331 96.7837 174.87C95.8209 174.409 94.991 173.711 94.3719 172.841C93.1254 171.083 92.5021 168.52 92.5021 165.152C92.503 163.902 92.6511 162.658 92.9433 161.443C93.2156 160.265 93.6958 159.144 94.3614 158.134C94.9909 157.177 95.8274 156.373 96.809 155.781C97.919 155.154 99.1795 154.841 100.454 154.878C100.959 154.881 101.462 154.933 101.956 155.035C103.037 155.255 104.049 155.73 104.908 156.422C105.362 156.788 105.746 157.233 106.043 157.735L104.919 160.225C104.867 159.364 104.679 158.516 104.362 157.714C104.124 157.131 103.766 156.605 103.311 156.17C102.939 155.8 102.481 155.53 101.977 155.382C101.469 155.232 100.942 155.157 100.412 155.162C100.062 155.145 99.7118 155.198 99.3819 155.317C99.0521 155.436 98.7489 155.619 98.4898 155.855C97.9732 156.342 97.5837 156.948 97.3553 157.62C97.0736 158.417 96.8901 159.246 96.809 160.088C96.7164 160.999 96.6708 161.914 96.6725 162.83C97.1679 162.364 97.7545 162.007 98.3952 161.78C98.9819 161.587 99.5951 161.488 100.213 161.485C101.005 161.489 101.795 161.584 102.566 161.769C103.362 161.956 104.107 162.315 104.751 162.82C105.452 163.379 106.007 164.1 106.368 164.92C106.826 165.969 107.041 167.107 106.999 168.25C107.014 169.194 106.894 170.135 106.641 171.045L106.662 171.055ZM122.808 171.675C122.408 172.514 121.823 173.25 121.096 173.828C120.356 174.405 119.51 174.83 118.606 175.079C117.642 175.346 116.645 175.48 115.644 175.478C114.748 175.49 113.857 175.352 113.007 175.068C112.272 174.813 111.586 174.433 110.98 173.944C110.419 173.491 109.945 172.939 109.583 172.316C109.222 171.706 108.96 171.043 108.805 170.351L111.211 167.011C111.057 168.119 111.057 169.243 111.211 170.351C111.336 171.262 111.628 172.142 112.072 172.946C112.437 173.615 112.96 174.185 113.596 174.606C114.193 174.993 114.89 175.197 115.602 175.194C116.256 175.231 116.903 175.038 117.43 174.648C117.902 174.262 118.265 173.758 118.48 173.188C118.748 172.515 118.918 171.808 118.985 171.087C119.07 170.281 119.112 169.471 119.111 168.66C119.24 166.99 118.712 165.335 117.64 164.049C116.652 163.04 115.056 162.536 112.85 162.536L117.167 155.435H114.278C113.796 155.427 113.318 155.517 112.871 155.697C112.474 155.873 112.117 156.127 111.82 156.443C111.49 156.785 111.207 157.17 110.98 157.588C110.728 158.019 110.476 158.523 110.203 159.069L110.864 155.151H122.136L118.018 161.937C118.757 162.123 119.465 162.417 120.119 162.809C120.765 163.183 121.341 163.666 121.821 164.238C122.306 164.805 122.69 165.452 122.955 166.15C123.239 166.905 123.381 167.706 123.375 168.513C123.423 169.598 123.222 170.68 122.787 171.675H122.808Z" fill="#F8E4C1"/>
<path d="M102.361 164.237C102.207 163.604 101.917 163.013 101.51 162.504C101.322 162.275 101.084 162.093 100.815 161.971C100.545 161.849 100.251 161.79 99.9556 161.8C99.6535 161.789 99.3525 161.843 99.0733 161.959C98.7942 162.075 98.5433 162.25 98.3379 162.472C97.9119 162.951 97.5899 163.512 97.3925 164.122C97.1635 164.802 97.0154 165.507 96.9513 166.222C96.875 166.882 96.8365 167.544 96.8357 168.208C96.8208 169.316 96.9017 170.423 97.0773 171.517C97.1928 172.266 97.4157 172.995 97.7391 173.681C97.9521 174.154 98.2853 174.563 98.7056 174.868C99.0597 175.096 99.4712 175.22 99.8926 175.225C100.178 175.233 100.461 175.175 100.72 175.055C100.979 174.934 101.207 174.755 101.384 174.532C101.789 174.025 102.089 173.443 102.267 172.819C102.482 172.097 102.623 171.354 102.687 170.603C102.75 169.815 102.781 169.09 102.781 168.439C102.781 167.788 102.781 167.199 102.729 166.443C102.682 165.697 102.559 164.958 102.361 164.237Z" fill="#F8E4C1"/>
<path d="M86.0517 164.237C85.9013 163.605 85.6145 163.013 85.2113 162.504C85.0168 162.269 84.7702 162.084 84.4911 161.961C84.2121 161.839 83.9083 161.784 83.6041 161.8C83.3019 161.789 83.001 161.844 82.7218 161.96C82.4426 162.076 82.1917 162.251 81.9863 162.472C81.5603 162.951 81.2384 163.512 81.0409 164.122C80.817 164.804 80.6691 165.508 80.5997 166.223C80.5262 166.958 80.4842 167.62 80.4842 168.208C80.4693 169.316 80.5501 170.423 80.7258 171.517C80.8511 172.264 81.0736 172.992 81.3876 173.681C81.6005 174.157 81.938 174.567 82.3645 174.868C82.7179 175.098 83.1299 175.222 83.5515 175.225C83.8354 175.233 84.1173 175.175 84.3745 175.055C84.6317 174.934 84.8572 174.755 85.0327 174.532C85.445 174.029 85.749 173.446 85.9256 172.82C86.1423 172.098 86.2797 171.355 86.3353 170.603C86.4088 169.815 86.4403 169.09 86.4403 168.439C86.4403 167.788 86.4403 167.2 86.3773 166.443C86.3495 165.698 86.2403 164.958 86.0517 164.237Z" fill="#F8E4C1"/>
<path d="M32.2285 94.5396V66.9226H0V128.018H63.6902V94.5396H32.2285Z" fill="#F8E4C1"/>
<path d="M133.307 105.097V88.6884H101.457V83.247H133.307V66.9226H69.6172V128.018H133.307V110.538H101.457V105.097H133.307Z" fill="#F8E4C1"/>
<path d="M69.6172 0V61.0955H87.7799V50.9269H115.092V61.0955H133.265V0H69.6172ZM115.134 21.9654H87.8219V16.5239H115.134V21.9654Z" fill="#F8E4C1"/>
<path d="M31.8504 21.9654L0.0525237 0H0V61.0955H63.6902V0.325647L31.8504 21.9654Z" fill="#F8E4C1"/>
</svg>
