<svg width="355" height="74" viewBox="0 0 355 74" fill="none" xmlns="http://www.w3.org/2000/svg">
<g filter="url(#filter0_d_294_11150)">
<path d="M228.91 41.4512V23.3615H250.859V12.3613H206.953V54.4862H250.859V41.4512H228.91Z" fill="white"/>
<path d="M314.088 43.7107L327.355 54.4863H339.999V11H327.014V22.1812L313.248 11H300.879V54.4863H314.088V43.7107Z" fill="white"/>
<path d="M275.752 11C263.123 11 252.883 20.7328 252.883 32.7251C252.883 44.7318 263.123 54.4501 275.752 54.4501C288.382 54.4501 298.614 44.7101 298.614 32.7251C298.614 20.7401 288.382 11 275.752 11ZM269.235 37.4756C269.069 38.0633 268.772 38.6056 268.366 39.0616C267.945 39.5312 267.422 39.8979 266.838 40.1333C266.113 40.4122 265.34 40.5451 264.564 40.5244C263.828 40.5688 263.093 40.4253 262.428 40.1073C261.763 39.7893 261.189 39.3073 260.762 38.7067C259.907 37.4974 259.473 35.7304 259.473 33.4058C259.473 32.5447 259.575 31.6867 259.777 30.8495C259.965 30.0371 260.296 29.2646 260.755 28.5683C261.195 27.9063 261.779 27.3519 262.464 26.9462C263.229 26.5128 264.098 26.2974 264.976 26.3234C265.324 26.3256 265.671 26.3619 266.012 26.432C266.377 26.5061 266.732 26.6228 267.069 26.7796C267.419 26.9412 267.747 27.1455 268.047 27.3879C268.355 27.6427 268.618 27.949 268.822 28.2932L268.04 30.0094C268 29.4164 267.871 28.8328 267.656 28.2787C267.489 27.8784 267.243 27.5163 266.932 27.2141C266.677 26.9574 266.36 26.7704 266.012 26.671C265.664 26.5669 265.303 26.5156 264.94 26.5189C264.45 26.4957 263.971 26.6676 263.608 26.9969C263.254 27.3342 262.986 27.7514 262.826 28.2135C262.628 28.7624 262.502 29.3343 262.449 29.9153C262.383 30.5432 262.349 31.174 262.348 31.8054C262.693 31.4858 263.099 31.2394 263.543 31.0812C263.947 30.9486 264.37 30.8802 264.795 30.8784C265.339 30.8805 265.881 30.9461 266.41 31.074C266.962 31.2015 267.479 31.4487 267.924 31.7981C268.405 32.1841 268.785 32.6811 269.032 33.2465C269.347 33.9693 269.496 34.754 269.466 35.5421C269.481 36.1929 269.398 36.8422 269.22 37.4684L269.235 37.4756ZM280.481 37.4756C280.312 38.0727 280.008 38.6229 279.592 39.0838C279.176 39.5446 278.66 39.9037 278.084 40.1333C277.357 40.4128 276.581 40.5457 275.803 40.5244C275.068 40.5676 274.334 40.4234 273.671 40.1055C273.007 39.7876 272.435 39.3063 272.008 38.7067C271.149 37.4949 270.719 35.728 270.719 33.4058C270.72 32.5447 270.822 31.6867 271.023 30.8495C271.211 30.0371 271.542 29.2646 272.001 28.5683C272.435 27.9082 273.011 27.3539 273.688 26.9462C274.453 26.5135 275.322 26.2981 276.201 26.3234C276.549 26.3252 276.896 26.3616 277.237 26.432C277.982 26.5833 278.679 26.9111 279.272 27.3879C279.584 27.6405 279.849 27.9471 280.054 28.2932L279.279 30.0094C279.243 29.4159 279.113 28.8317 278.895 28.2787C278.731 27.8768 278.484 27.5141 278.171 27.2141C277.914 26.9594 277.598 26.7727 277.251 26.671C276.901 26.5674 276.537 26.5161 276.172 26.5189C275.931 26.5076 275.689 26.544 275.462 26.626C275.235 26.708 275.026 26.8341 274.847 26.9969C274.491 27.3325 274.222 27.7502 274.065 28.2135C273.871 28.7634 273.744 29.3348 273.688 29.9153C273.624 30.5433 273.593 31.1741 273.594 31.8054C273.936 31.4845 274.34 31.2379 274.782 31.0812C275.186 30.9486 275.609 30.8802 276.034 30.8784C276.581 30.8809 277.125 30.9465 277.657 31.074C278.205 31.2029 278.719 31.45 279.163 31.7981C279.646 32.1836 280.029 32.6806 280.278 33.2465C280.594 33.9693 280.742 34.754 280.713 35.5421C280.723 36.1927 280.64 36.8414 280.466 37.4684L280.481 37.4756ZM291.611 37.9029C291.336 38.481 290.932 38.9887 290.431 39.3874C289.921 39.7849 289.338 40.0777 288.715 40.2492C288.05 40.4332 287.363 40.5258 286.673 40.5244C286.055 40.5329 285.441 40.4374 284.855 40.2419C284.348 40.0663 283.875 39.8041 283.457 39.4671C283.07 39.1549 282.744 38.7745 282.494 38.3446C282.245 37.9242 282.064 37.4672 281.958 36.9904L283.617 34.6876C283.51 35.4515 283.51 36.2265 283.617 36.9904C283.703 37.6181 283.904 38.2245 284.21 38.7791C284.462 39.2404 284.822 39.6332 285.26 39.9233C285.672 40.1899 286.153 40.3308 286.644 40.3288C287.095 40.3544 287.541 40.2212 287.904 39.9523C288.229 39.6863 288.479 39.3391 288.628 38.9457C288.813 38.4821 288.93 37.9943 288.975 37.4973C289.034 36.9417 289.063 36.3833 289.062 35.8245C289.151 34.6732 288.788 33.5326 288.048 32.6454C287.368 31.9502 286.267 31.6026 284.746 31.6026L287.723 26.7072H285.731C285.399 26.7022 285.069 26.7638 284.761 26.8883C284.487 27.0094 284.241 27.1842 284.037 27.4024C283.809 27.6381 283.614 27.9036 283.457 28.1918C283.283 28.4887 283.11 28.8363 282.921 29.2129L283.378 26.5117H291.148L288.309 31.1898C288.819 31.3182 289.307 31.5207 289.758 31.7909C290.203 32.0485 290.6 32.3818 290.931 32.7758C291.265 33.1669 291.53 33.6127 291.713 34.0938C291.908 34.6146 292.006 35.1669 292.002 35.7231C292.035 36.4711 291.896 37.2167 291.597 37.9029H291.611Z" fill="white"/>
<path d="M277.521 32.7758C277.415 32.3394 277.215 31.9316 276.935 31.5809C276.805 31.4234 276.641 31.2977 276.455 31.2136C276.269 31.1295 276.067 31.0891 275.863 31.0957C275.655 31.0881 275.447 31.1256 275.255 31.2056C275.062 31.2856 274.889 31.4062 274.748 31.5591C274.454 31.8889 274.232 32.276 274.096 32.6961C273.938 33.1653 273.836 33.6514 273.792 34.1444C273.739 34.5988 273.713 35.0557 273.712 35.5131C273.702 36.2769 273.758 37.0401 273.879 37.7942C273.958 38.3108 274.112 38.8133 274.335 39.286C274.482 39.6123 274.711 39.8944 275.001 40.1043C275.245 40.2618 275.529 40.3472 275.819 40.3506C276.016 40.3562 276.212 40.316 276.39 40.233C276.569 40.1501 276.725 40.0267 276.848 39.8726C277.127 39.5234 277.334 39.1222 277.456 38.6922C277.604 38.1941 277.702 37.6821 277.746 37.1642C277.789 36.6211 277.811 36.1214 277.811 35.6724C277.811 35.2234 277.811 34.8179 277.775 34.2965C277.742 33.7823 277.657 33.2727 277.521 32.7758Z" fill="white"/>
<path d="M266.273 32.7752C266.169 32.3394 265.972 31.9316 265.694 31.5803C265.559 31.4187 265.389 31.2906 265.197 31.2064C265.005 31.1221 264.795 31.084 264.586 31.0951C264.377 31.0876 264.17 31.1251 263.977 31.2051C263.785 31.2851 263.612 31.4057 263.47 31.5586C263.177 31.8883 262.955 32.2755 262.819 32.6956C262.664 33.1657 262.562 33.6514 262.514 34.1439C262.464 34.6508 262.435 35.107 262.435 35.5126C262.425 36.2763 262.48 37.0395 262.601 37.7937C262.688 38.3087 262.841 38.8102 263.058 39.2855C263.204 39.6139 263.437 39.8966 263.731 40.1038C263.975 40.2624 264.259 40.3479 264.549 40.35C264.745 40.3557 264.939 40.3154 265.117 40.2324C265.294 40.1494 265.449 40.026 265.57 39.8721C265.855 39.5252 266.064 39.1233 266.186 38.6917C266.335 38.1941 266.43 37.6818 266.468 37.1637C266.519 36.6206 266.541 36.1209 266.541 35.6719C266.541 35.2229 266.541 34.8174 266.497 34.296C266.478 33.7824 266.403 33.2724 266.273 32.7752Z" fill="white"/>
<path d="M133.194 31.6859V12.6475H110.977V54.7651H154.883V31.6859H133.194Z" fill="white"/>
<path d="M202.873 38.9638V27.6522H180.916V23.901H202.873V12.6475H158.967V54.7651H202.873V42.715H180.916V38.9638H202.873Z" fill="white"/>
<path d="M62.9922 12.6475V54.7651H75.5131V47.7552H94.3415V54.7651H106.87V12.6475H62.9922ZM94.3704 27.7898H75.542V24.0386H94.3704V27.7898Z" fill="white"/>
<path d="M36.9568 27.7898L15.0362 12.6475H15V54.7651H58.9064V12.872L36.9568 27.7898Z" fill="white"/>
</g>
<defs>
<filter id="filter0_d_294_11150" x="0" y="0" width="354.998" height="73.7651" filterUnits="userSpaceOnUse" color-interpolation-filters="sRGB">
<feFlood flood-opacity="0" result="BackgroundImageFix"/>
<feColorMatrix in="SourceAlpha" type="matrix" values="0 0 0 0 0 0 0 0 0 0 0 0 0 0 0 0 0 0 127 0" result="hardAlpha"/>
<feOffset dy="4"/>
<feGaussianBlur stdDeviation="7.5"/>
<feComposite in2="hardAlpha" operator="out"/>
<feColorMatrix type="matrix" values="0 0 0 0 0 0 0 0 0 0 0 0 0 0 0 0 0 0 0.25 0"/>
<feBlend mode="normal" in2="BackgroundImageFix" result="effect1_dropShadow_294_11150"/>
<feBlend mode="normal" in="SourceGraphic" in2="effect1_dropShadow_294_11150" result="shape"/>
</filter>
</defs>
</svg>
