<svg width="85" height="26" viewBox="0 0 85 26" fill="none" xmlns="http://www.w3.org/2000/svg">
<path d="M12.2182 9.40965L0.0201487 0.839844H0V24.6763H24.4323V0.966895L12.2182 9.40965Z" fill="#096455"/>
<path d="M41.5601 9.81042C42.4315 9.81652 43.2992 9.92498 44.1453 10.1336C45.0201 10.3406 45.8409 10.7316 46.5527 11.2807C47.3147 11.8846 47.9236 12.6595 48.33 13.5427C48.8321 14.697 49.0685 15.9493 49.0215 17.2072C49.0283 18.2562 48.8802 19.3004 48.5821 20.3062C48.3107 21.2419 47.8375 22.1066 47.1958 22.8396C46.5239 23.5847 45.6905 24.1661 44.7593 24.5394C43.6023 24.9938 42.3665 25.2135 41.1239 25.1857C38.459 25.1857 36.4393 24.2162 35.0649 22.2774C33.6905 20.3385 33.0022 17.5196 33 13.8207C32.9996 12.4435 33.1634 11.0712 33.488 9.73286C33.7863 8.4379 34.3137 7.20673 35.0455 6.09748C35.7482 5.04347 36.6778 4.16015 37.7664 3.51231C38.9869 2.81627 40.3754 2.46969 41.7799 2.51056C42.3347 2.51372 42.8879 2.57218 43.4311 2.68506C44.0134 2.79994 44.5797 2.98437 45.118 3.23441C45.6744 3.49337 46.1974 3.81889 46.6755 4.20385C47.1721 4.60863 47.5923 5.09891 47.9164 5.65154L46.6884 8.38858C46.6274 7.43939 46.4203 6.50529 46.0745 5.61922C45.8195 4.9853 45.4392 4.40937 44.9564 3.92594C44.5455 3.52502 44.0447 3.2281 43.4958 3.05991C42.9373 2.90387 42.3596 2.82771 41.7799 2.83371C41.0015 2.79366 40.2388 3.06185 39.6568 3.58018C39.0965 4.12057 38.6705 4.78456 38.4127 5.51905C38.101 6.39315 37.9001 7.30291 37.8149 8.22701C37.7089 9.22957 37.6561 10.237 37.6565 11.2452C38.2063 10.7433 38.8561 10.3634 39.5631 10.1303C40.2079 9.91986 40.8818 9.81191 41.5601 9.81042ZM41.1206 24.8561C41.433 24.8644 41.7431 24.8005 42.0267 24.6694C42.3103 24.5382 42.5598 24.3433 42.7558 24.0999C43.2005 23.5411 43.53 22.8997 43.7252 22.2127C43.9618 21.4176 44.1146 20.5999 44.1808 19.773C44.2552 18.9037 44.2907 18.1088 44.2907 17.3979C44.2907 16.7667 44.2702 16.032 44.2293 15.194C44.1913 14.3866 44.07 13.5853 43.8674 12.8027C43.6966 12.1143 43.3816 11.4699 42.9432 10.9123C42.73 10.6557 42.4596 10.4524 42.1538 10.3189C41.848 10.1854 41.5152 10.1252 41.182 10.1433C40.8498 10.1301 40.5187 10.1894 40.2118 10.3172C39.9048 10.445 39.6294 10.6382 39.4047 10.8833C38.9345 11.4066 38.5799 12.0232 38.3642 12.6929C38.1183 13.4331 37.9547 14.1982 37.8763 14.9743C37.7977 15.7009 37.7567 16.4311 37.7535 17.162C37.7352 18.3792 37.8238 19.5957 38.0184 20.7974C38.149 21.6187 38.3926 22.4179 38.7423 23.1725C38.9778 23.6907 39.3469 24.1368 39.8119 24.4651C40.2009 24.7197 40.6557 24.8556 41.1206 24.8561Z" fill="#096455"/>
<path d="M59.4976 9.81048C60.3691 9.81658 61.2367 9.92504 62.0828 10.1336C62.9577 10.3406 63.7784 10.7317 64.4902 11.2808C65.2522 11.8846 65.8611 12.6596 66.2675 13.5428C66.7696 14.6971 67.006 15.9494 66.9591 17.2073C66.9658 18.2563 66.8177 19.3005 66.5196 20.3062C66.2483 21.2419 65.7751 22.1067 65.1333 22.8397C64.462 23.5854 63.6284 24.1669 62.6968 24.5394C61.5398 24.9938 60.3041 25.2135 59.0614 25.1857C56.3965 25.1857 54.3769 24.2163 53.0024 22.2774C51.628 20.3386 50.9397 17.5196 50.9375 13.8207C50.935 12.4438 51.0966 11.0715 51.419 9.73292C51.7207 8.43798 52.2503 7.20702 52.983 6.09754C53.686 5.04268 54.617 4.15921 55.7072 3.51238C56.9263 2.81597 58.314 2.46934 59.7174 2.51063C60.2733 2.51378 60.8275 2.57224 61.3719 2.68512C61.9519 2.80073 62.516 2.98515 63.0522 3.23447C63.6087 3.49343 64.1317 3.81895 64.6098 4.20391C65.1064 4.6087 65.5266 5.09897 65.8507 5.6516L64.626 8.38864C64.5642 7.44259 64.3605 6.51121 64.0217 5.62575C63.7673 4.98961 63.387 4.41145 62.9036 3.926C62.492 3.52267 61.9885 3.22546 61.4365 3.05997C60.8771 2.90363 60.2982 2.82747 59.7174 2.83377C58.9378 2.79707 58.1752 3.06871 57.5943 3.58993C57.0341 4.13032 56.608 4.79431 56.3502 5.5288C56.04 6.40334 55.8392 7.31291 55.7524 8.23676C55.6481 9.23945 55.5952 10.2468 55.5941 11.2549C56.1444 10.7538 56.794 10.374 57.5006 10.1401C58.145 9.92659 58.8188 9.81537 59.4976 9.81048ZM59.0582 24.8561C59.3705 24.8645 59.6806 24.8006 59.9642 24.6694C60.2479 24.5383 60.4974 24.3434 60.6933 24.1C61.1393 23.542 61.4689 22.9003 61.6627 22.2128C61.9009 21.4181 62.0537 20.6002 62.1184 19.773C62.1927 18.9038 62.2282 18.1089 62.2282 17.3979C62.2282 16.7667 62.2078 16.0321 62.1668 15.1941C62.1304 14.3865 62.0091 13.585 61.8049 12.8028C61.6339 12.1151 61.3201 11.471 60.8839 10.9124C60.6697 10.6561 60.3988 10.4531 60.0925 10.3196C59.7863 10.1861 59.4532 10.1258 59.1196 10.1433C58.7874 10.1305 58.4564 10.1901 58.1495 10.3179C57.8427 10.4457 57.5672 10.6386 57.3423 10.8833C56.8719 11.406 56.5183 12.0229 56.305 12.6929C56.0575 13.4328 55.8939 14.198 55.817 14.9743C55.7375 15.7009 55.6955 16.4311 55.691 17.162C55.6694 18.3735 55.7537 19.5845 55.9431 20.7813C56.0745 21.6028 56.3192 22.4021 56.6701 23.1564C56.9045 23.6752 57.2739 24.1216 57.7397 24.449C58.1292 24.7122 58.5881 24.8539 59.0582 24.8561Z" fill="#096455"/>
<path d="M71.5189 15.8535C71.3715 17.0782 71.3878 18.317 71.5674 19.5374C71.7063 20.5358 72.0261 21.5005 72.511 22.3843C72.9149 23.1211 73.4929 23.7479 74.1946 24.21C74.8505 24.6357 75.6165 24.8604 76.3984 24.8563C77.118 24.8921 77.8282 24.6812 78.4116 24.2585C78.935 23.8318 79.3363 23.2744 79.5749 22.6428C79.8653 21.9064 80.0513 21.1331 80.1275 20.3452C80.2233 19.4566 80.2708 18.5634 80.2697 17.6696C80.2697 15.4054 79.7311 13.7164 78.654 12.6027C77.5768 11.4889 75.8232 10.9363 73.3932 10.9449L78.1305 3.15713H74.9507C74.4232 3.14579 73.8989 3.24143 73.4093 3.43827C72.9644 3.63044 72.5623 3.90949 72.2266 4.25906C71.8646 4.63632 71.5528 5.05884 71.2992 5.51609C71.0278 6.00081 70.7434 6.54369 70.4493 7.15444L71.1732 2.83398H83.5723L79.0482 10.2954C79.8838 10.4985 80.6843 10.8253 81.4233 11.2648C82.8524 12.099 83.9519 13.3982 84.5385 14.9455C84.8498 15.7714 85.0054 16.648 84.9973 17.5306C85.0286 18.7231 84.7865 19.907 84.2896 20.9915C83.8488 21.917 83.2022 22.7294 82.3992 23.3666C81.5865 23.9998 80.6562 24.4655 79.6622 24.7368C78.602 25.0332 77.5058 25.1811 76.4049 25.1763C75.4165 25.1916 74.4329 25.0375 73.4966 24.7206C72.6858 24.4436 71.9292 24.0281 71.2604 23.4927C70.6433 22.9921 70.1211 22.3846 69.719 21.6992C69.3248 21.0273 69.0381 20.2979 68.8691 19.5374L71.5189 15.8535Z" fill="#096455"/>
</svg>
