<svg width="789" height="202" viewBox="0 0 789 202" fill="none" xmlns="http://www.w3.org/2000/svg">
<path d="M519.304 73.9262V30.01H572.591V3.30518H466V105.571H572.591V73.9262H519.304Z" fill="white"/>
<path d="M726.098 79.4113L758.306 105.571H789.001V0H757.479V27.1443L724.059 0H694.031V105.571H726.098V79.4113Z" fill="white"/>
<path d="M633.027 0C602.367 0 577.508 23.6282 577.508 52.7416C577.508 81.8901 602.367 105.483 633.027 105.483C663.688 105.483 688.529 81.8374 688.529 52.7416C688.529 23.6458 663.688 0 633.027 0ZM617.205 64.2744C616.802 65.7012 616.081 67.0177 615.095 68.1246C614.074 69.2646 612.805 70.1549 611.386 70.7265C609.626 71.4035 607.75 71.7261 605.865 71.6758C604.079 71.7837 602.294 71.4353 600.68 70.6633C599.065 69.8913 597.673 68.7213 596.635 67.2631C594.561 64.3272 593.506 60.0375 593.506 54.3942C593.508 52.3037 593.756 50.2207 594.244 48.1882C594.7 46.2159 595.504 44.3407 596.618 42.6504C597.688 41.0431 599.106 39.6971 600.767 38.7123C602.624 37.6601 604.734 37.1372 606.867 37.2004C607.712 37.2056 608.554 37.2939 609.381 37.4641C610.267 37.644 611.128 37.9273 611.948 38.308C612.797 38.7002 613.594 39.1962 614.321 39.7848C615.071 40.4033 615.707 41.1468 616.203 41.9823L614.304 46.1489C614.208 44.7092 613.894 43.2924 613.372 41.9472C612.967 40.9755 612.369 40.0963 611.614 39.3628C610.995 38.7395 610.226 38.2855 609.381 38.0443C608.537 37.7915 607.66 37.6671 606.779 37.6751C605.59 37.6188 604.427 38.036 603.545 38.8354C602.685 39.6542 602.034 40.667 601.646 41.7889C601.166 43.1215 600.859 44.5099 600.732 45.9204C600.571 47.4446 600.489 48.9761 600.486 50.5089C601.324 49.7329 602.311 49.1349 603.386 48.7508C604.368 48.429 605.395 48.2629 606.428 48.2586C607.749 48.2635 609.064 48.4228 610.348 48.7332C611.687 49.0427 612.942 49.6429 614.023 50.4913C615.191 51.4283 616.114 52.6349 616.712 54.0074C617.478 55.7623 617.839 57.6671 617.767 59.5804C617.803 61.1603 617.601 62.7366 617.17 64.2569L617.205 64.2744ZM644.507 64.2744C644.097 65.724 643.358 67.0597 642.349 68.1785C641.34 69.2972 640.088 70.169 638.688 70.7265C636.923 71.4049 635.041 71.7275 633.15 71.6758C631.367 71.7807 629.586 71.4308 627.974 70.6589C626.363 69.8871 624.974 68.7186 623.938 67.2631C621.852 64.3213 620.809 60.0317 620.809 54.3942C620.81 52.3037 621.058 50.2207 621.547 48.1882C622.003 46.2159 622.807 44.3407 623.92 42.6504C624.974 41.0477 626.374 39.702 628.017 38.7123C629.874 37.6618 631.984 37.139 634.117 37.2004C634.962 37.2048 635.804 37.2931 636.631 37.4641C638.44 37.8312 640.134 38.6271 641.571 39.7848C642.331 40.3978 642.974 41.1421 643.47 41.9823L641.589 46.1489C641.502 44.7079 641.187 43.2898 640.657 41.9472C640.259 40.9716 639.66 40.091 638.899 39.3628C638.276 38.7443 637.509 38.2911 636.666 38.0443C635.816 37.7926 634.933 37.6682 634.047 37.6751C633.461 37.6476 632.875 37.7359 632.323 37.935C631.771 38.1341 631.263 38.4401 630.83 38.8354C629.965 39.6502 629.313 40.6642 628.931 41.7889C628.459 43.1238 628.152 44.5112 628.017 45.9204C627.862 47.4449 627.785 48.9764 627.788 50.5089C628.617 49.7298 629.599 49.1312 630.671 48.7508C631.653 48.429 632.679 48.2629 633.713 48.2586C635.039 48.2645 636.361 48.4238 637.651 48.7332C638.983 49.0462 640.231 49.6462 641.308 50.4913C642.481 51.4272 643.41 52.6337 644.015 54.0074C644.781 55.7623 645.141 57.6671 645.07 59.5804C645.096 61.1598 644.894 62.7347 644.472 64.2569L644.507 64.2744ZM671.529 65.3117C670.86 66.7151 669.88 67.9477 668.663 68.9157C667.425 69.8805 666.009 70.5915 664.496 71.0078C662.882 71.4546 661.214 71.6794 659.539 71.6758C658.04 71.6965 656.548 71.4647 655.126 70.9902C653.895 70.5637 652.747 69.9272 651.733 69.1091C650.794 68.3512 650.001 67.4276 649.395 66.3841C648.791 65.3635 648.352 64.254 648.094 63.0965L652.12 57.5059C651.862 59.3606 651.862 61.2419 652.12 63.0965C652.329 64.6204 652.818 66.0925 653.561 67.4389C654.172 68.5588 655.047 69.5124 656.11 70.2167C657.11 70.8638 658.277 71.2059 659.468 71.2012C660.563 71.2632 661.646 70.9398 662.527 70.287C663.318 69.6413 663.925 68.7983 664.285 67.8433C664.734 66.7179 665.018 65.5337 665.129 64.3272C665.272 62.9782 665.343 61.6226 665.34 60.2661C665.557 57.471 664.673 54.7019 662.879 52.5482C661.226 50.8605 658.554 50.0166 654.862 50.0166L662.088 38.1322H657.253C656.446 38.1201 655.645 38.2695 654.897 38.5717C654.234 38.8657 653.636 39.2902 653.139 39.8199C652.586 40.3921 652.113 41.0367 651.733 41.7362C651.311 42.457 650.889 43.3009 650.432 44.2151L651.539 37.6575H670.403L663.512 49.0145C664.749 49.3261 665.934 49.8178 667.028 50.4737C668.109 51.0991 669.073 51.9082 669.876 52.8647C670.688 53.8141 671.33 54.8965 671.775 56.0643C672.249 57.3289 672.487 58.6695 672.478 60.0199C672.557 61.8358 672.221 63.6459 671.493 65.3117H671.529Z" fill="white"/>
<path d="M637.313 52.8647C637.055 51.8055 636.569 50.8154 635.889 49.9639C635.574 49.5815 635.176 49.2764 634.725 49.0722C634.274 48.868 633.782 48.7701 633.287 48.786C632.781 48.7677 632.278 48.8587 631.81 49.0529C631.343 49.2471 630.923 49.5398 630.579 49.9111C629.866 50.7116 629.328 51.6516 628.997 52.6713C628.614 53.8103 628.366 54.9905 628.259 56.1874C628.131 57.2904 628.067 58.3998 628.065 59.5101C628.041 61.3643 628.176 63.2171 628.47 65.048C628.663 66.3021 629.036 67.5219 629.577 68.6696C629.934 69.4616 630.491 70.1465 631.195 70.6562C631.787 71.0385 632.476 71.2457 633.181 71.2539C633.659 71.2677 634.133 71.17 634.567 70.9686C635 70.7672 635.38 70.4676 635.678 70.0936C636.355 69.2459 636.857 68.2717 637.155 67.228C637.515 66.0187 637.75 64.7757 637.858 63.5185C637.963 62.1999 638.016 60.9869 638.016 59.8969C638.016 58.8069 638.016 57.8224 637.928 56.5566C637.85 55.3082 637.643 54.0711 637.313 52.8647Z" fill="white"/>
<path d="M610.012 52.8645C609.76 51.8066 609.28 50.8165 608.606 49.9637C608.28 49.5713 607.867 49.2604 607.4 49.0559C606.933 48.8514 606.425 48.7589 605.916 48.7858C605.41 48.7675 604.906 48.8586 604.439 49.0527C603.972 49.2469 603.552 49.5397 603.208 49.911C602.495 50.7115 601.957 51.6514 601.626 52.6711C601.251 53.8124 601.004 54.9916 600.888 56.1872C600.765 57.4179 600.694 58.5254 600.694 59.51C600.669 61.3641 600.805 63.2169 601.099 65.0478C601.308 66.2981 601.681 67.5157 602.206 68.6694C602.563 69.4667 603.127 70.153 603.841 70.656C604.433 71.041 605.122 71.2485 605.828 71.2537C606.303 71.2675 606.775 71.1697 607.205 70.9682C607.636 70.7667 608.013 70.4671 608.307 70.0934C608.997 69.2512 609.505 68.2757 609.801 67.2278C610.164 66.0199 610.394 64.7761 610.487 63.5183C610.61 62.1998 610.662 60.9867 610.662 59.8967C610.662 58.8067 610.662 57.8222 610.557 56.5564C610.51 55.3096 610.328 54.0716 610.012 52.8645Z" fill="white"/>
<path d="M286.937 50.2192V4H233V106.248H339.591V50.2192H286.937Z" fill="white"/>
<path d="M456.097 67.8877V40.4269H402.792V31.3201H456.097V4H349.506V106.248H456.097V76.9944H402.792V67.8877H456.097Z" fill="white"/>
<path d="M116.506 4V106.248H146.903V89.2304H192.612V106.248H223.026V4H116.506ZM192.682 40.7609H146.973V31.6542H192.682V40.7609Z" fill="white"/>
<path d="M53.3042 40.7609L0.0879027 4H0V106.248H106.591V4.545L53.3042 40.7609Z" fill="white"/>
<path d="M108.64 175.08C107.653 175.08 106.627 174.84 105.56 174.36C104.493 173.907 103.587 173.133 102.84 172.04C102.12 170.947 101.76 169.493 101.76 167.68C101.76 165.76 101.92 163.773 102.24 161.72C102.587 159.64 103.027 157.6 103.56 155.6C104.12 153.573 104.72 151.667 105.36 149.88C106.027 148.093 106.68 146.507 107.32 145.12C107.987 143.733 108.6 142.653 109.16 141.88C109.747 141.08 110.213 140.68 110.56 140.68C111.28 140.68 111.92 140.947 112.48 141.48C113.067 142.013 113.36 142.827 113.36 143.92C113.36 144.187 113.2 144.84 112.88 145.88C112.587 146.893 112.2 148.16 111.72 149.68C111.267 151.2 110.76 152.853 110.2 154.64C109.667 156.4 109.16 158.187 108.68 160C108.227 161.813 107.84 163.52 107.52 165.12C107.227 166.72 107.08 168.093 107.08 169.24C107.08 169.56 107.267 169.72 107.64 169.72C108.173 169.72 108.96 169.587 110 169.32C111.067 169.053 112.227 168.72 113.48 168.32C114.76 167.893 115.987 167.48 117.16 167.08C118.333 166.68 119.333 166.347 120.16 166.08C120.987 165.813 121.453 165.68 121.56 165.68C122.227 165.68 122.76 165.867 123.16 166.24C123.56 166.613 123.76 167.147 123.76 167.84C123.76 168.32 123.44 168.88 122.8 169.52C122.16 170.133 121.307 170.773 120.24 171.44C119.173 172.08 117.973 172.667 116.64 173.2C115.333 173.76 113.987 174.213 112.6 174.56C111.213 174.907 109.893 175.08 108.64 175.08ZM131.932 174.52C131.079 174.52 130.306 174.28 129.612 173.8C128.919 173.347 128.372 172.747 127.972 172C127.572 171.227 127.372 170.4 127.372 169.52C127.372 167.867 127.732 166.253 128.452 164.68C129.199 163.107 130.172 161.613 131.372 160.2C132.572 158.787 133.879 157.493 135.292 156.32C136.732 155.12 138.159 154.093 139.572 153.24C141.012 152.387 142.319 151.72 143.492 151.24C144.692 150.76 145.626 150.52 146.292 150.52C147.066 150.52 147.692 150.693 148.172 151.04C148.679 151.36 148.932 151.867 148.932 152.56C148.932 152.773 148.879 152.947 148.772 153.08C149.119 153.16 149.399 153.36 149.612 153.68C149.826 154 149.932 154.48 149.932 155.12C149.932 155.387 149.866 156.08 149.732 157.2C149.599 158.32 149.452 159.68 149.292 161.28C149.159 162.88 149.092 164.547 149.092 166.28C149.092 166.547 149.132 166.787 149.212 167C149.292 167.187 149.466 167.28 149.732 167.28C150.799 167.28 151.879 167.067 152.972 166.64C154.092 166.187 155.172 165.64 156.212 165C157.279 164.333 158.239 163.68 159.092 163.04C159.972 162.373 160.706 161.827 161.292 161.4C161.906 160.947 162.306 160.72 162.492 160.72C163.399 160.72 163.852 161.173 163.852 162.08C163.852 162.32 163.559 162.827 162.972 163.6C162.412 164.347 161.639 165.213 160.652 166.2C159.666 167.16 158.559 168.12 157.332 169.08C156.132 170.013 154.879 170.787 153.572 171.4C152.292 172.013 151.052 172.32 149.852 172.32C148.386 172.32 147.266 171.973 146.492 171.28C145.746 170.587 145.212 169.653 144.892 168.48C144.599 167.28 144.439 165.933 144.412 164.44C143.052 166.387 141.639 168.12 140.172 169.64C138.732 171.133 137.306 172.32 135.892 173.2C134.479 174.08 133.159 174.52 131.932 174.52ZM146.092 154.48C143.479 155.733 141.132 157.173 139.052 158.8C136.972 160.4 135.319 162.08 134.092 163.84C132.892 165.6 132.292 167.293 132.292 168.92C132.292 169.373 132.506 169.6 132.932 169.6C133.439 169.6 134.106 169.307 134.932 168.72C135.786 168.133 136.706 167.36 137.692 166.4C138.679 165.413 139.666 164.32 140.652 163.12C141.639 161.893 142.559 160.64 143.412 159.36C144.266 158.08 144.946 156.853 145.452 155.68C145.639 155.253 145.852 154.853 146.092 154.48ZM186.686 174.12C185.192 174.12 183.899 173.773 182.806 173.08C181.712 172.413 180.872 171.547 180.286 170.48C179.699 169.387 179.406 168.267 179.406 167.12C179.406 165.2 179.699 163.427 180.286 161.8C180.872 160.147 181.646 158.653 182.606 157.32C183.566 155.96 184.606 154.76 185.726 153.72C186.872 152.68 187.979 151.813 189.046 151.12C190.139 150.4 191.112 149.867 191.966 149.52C192.819 149.147 193.446 148.96 193.846 148.96C194.566 148.96 195.072 149.12 195.366 149.44C195.686 149.733 195.846 150.227 195.846 150.92C195.846 151.32 195.552 151.8 194.966 152.36C194.406 152.92 193.659 153.56 192.726 154.28C191.819 155 190.859 155.813 189.846 156.72C188.832 157.627 187.859 158.64 186.926 159.76C186.019 160.88 185.272 162.107 184.686 163.44C184.126 164.773 183.846 166.227 183.846 167.8C183.846 168.387 183.952 168.84 184.166 169.16C184.406 169.48 184.792 169.64 185.326 169.64C186.846 169.64 188.472 169.373 190.206 168.84C191.966 168.28 193.712 167.587 195.446 166.76C197.206 165.907 198.859 165.027 200.406 164.12C201.979 163.213 203.326 162.4 204.446 161.68C204.899 161.36 205.286 161.107 205.606 160.92C205.926 160.733 206.152 160.64 206.286 160.64C207.086 160.64 207.486 161.053 207.486 161.88C207.486 162.307 207.166 162.88 206.526 163.6C205.779 164.533 204.766 165.493 203.486 166.48C202.232 167.467 200.832 168.413 199.286 169.32C197.766 170.227 196.206 171.04 194.606 171.76C193.032 172.48 191.552 173.053 190.166 173.48C188.779 173.907 187.619 174.12 186.686 174.12ZM210.425 174.32C208.532 174.32 207.012 173.653 205.865 172.32C204.718 170.96 204.145 169.147 204.145 166.88C204.145 166.16 204.238 165.427 204.425 164.68C204.638 163.933 204.892 163.24 205.185 162.6C205.025 162.36 204.892 162.053 204.785 161.68C204.705 161.28 204.665 160.813 204.665 160.28C204.665 158.547 204.972 156.96 205.585 155.52C206.198 154.053 207.025 152.787 208.065 151.72C209.105 150.653 210.252 149.827 211.505 149.24C212.758 148.653 214.025 148.36 215.305 148.36C217.492 148.36 219.278 149.093 220.665 150.56C222.078 152.027 222.785 154.307 222.785 157.4C222.785 158.947 222.545 160.52 222.065 162.12C221.585 163.72 220.932 165.253 220.105 166.72C219.305 168.16 218.372 169.453 217.305 170.6C216.265 171.747 215.145 172.653 213.945 173.32C212.772 173.987 211.598 174.32 210.425 174.32ZM209.785 160.8C209.918 161.093 209.985 161.44 209.985 161.84C209.985 162.24 209.905 162.653 209.745 163.08C209.585 163.507 209.425 164.08 209.265 164.8C209.105 165.493 209.025 166.493 209.025 167.8C209.025 168.147 209.065 168.44 209.145 168.68C209.252 168.893 209.478 169 209.825 169C210.732 169 211.585 168.707 212.385 168.12C213.212 167.533 213.945 166.76 214.585 165.8C215.252 164.84 215.812 163.773 216.265 162.6C216.745 161.4 217.105 160.187 217.345 158.96C217.612 157.707 217.745 156.547 217.745 155.48C217.745 154.787 217.612 154.307 217.345 154.04C217.078 153.773 216.612 153.64 215.945 153.64C215.038 153.64 214.105 153.933 213.145 154.52C212.212 155.08 211.425 155.853 210.785 156.84C210.145 157.8 209.825 158.893 209.825 160.12C209.825 160.36 209.812 160.587 209.785 160.8ZM263.521 172.08C263.361 173.52 262.508 174.24 260.961 174.24C260.161 174.24 259.521 174 259.041 173.52C258.588 173.04 258.361 172.347 258.361 171.44C258.361 169.893 258.428 168.24 258.561 166.48C258.721 164.693 258.908 162.893 259.121 161.08C259.361 159.267 259.588 157.533 259.801 155.88C258.841 157.267 257.828 158.693 256.761 160.16C255.695 161.627 254.628 163.053 253.561 164.44C252.495 165.827 251.468 167.08 250.481 168.2C249.521 169.293 248.641 170.173 247.841 170.84C247.041 171.48 246.375 171.8 245.841 171.8C244.561 171.8 243.455 171.333 242.521 170.4C241.588 169.44 241.121 168.227 241.121 166.76C241.121 166.253 241.175 165.573 241.281 164.72C241.388 163.84 241.521 162.907 241.681 161.92C241.841 160.933 241.975 160 242.081 159.12C242.188 158.24 242.241 157.547 242.241 157.04C242.241 157.04 242.241 157.013 242.241 156.96C242.268 156.827 242.241 156.76 242.161 156.76C242.055 156.76 241.761 157.12 241.281 157.84C240.801 158.533 240.215 159.44 239.521 160.56C238.828 161.68 238.095 162.853 237.321 164.08C236.575 165.307 235.868 166.453 235.201 167.52C234.561 168.587 234.028 169.413 233.601 170C233.015 170.907 232.468 171.48 231.961 171.72C231.455 171.96 230.868 172.08 230.201 172.08C229.268 172.08 228.535 171.773 228.001 171.16C227.495 170.52 227.241 169.627 227.241 168.48C227.241 168 227.321 167.253 227.481 166.24C227.668 165.227 227.895 164.107 228.161 162.88C228.428 161.627 228.695 160.413 228.961 159.24C229.255 158.04 229.508 157.027 229.721 156.2C229.961 155.107 230.295 154.347 230.721 153.92C231.175 153.467 231.748 153.24 232.441 153.24C234.068 153.24 234.881 154.04 234.881 155.64C234.881 155.933 234.788 156.413 234.601 157.08C234.415 157.747 234.188 158.52 233.921 159.4C233.655 160.28 233.375 161.187 233.081 162.12C232.788 163.027 232.548 163.88 232.361 164.68C233.001 163.56 233.695 162.36 234.441 161.08C235.188 159.8 235.948 158.547 236.721 157.32C237.521 156.093 238.308 154.973 239.081 153.96C239.881 152.947 240.668 152.147 241.441 151.56C242.215 150.947 242.948 150.64 243.641 150.64C244.335 150.64 245.015 150.893 245.681 151.4C246.348 151.88 246.895 152.507 247.321 153.28C247.775 154.027 248.001 154.827 248.001 155.68C248.001 156.48 247.895 157.44 247.681 158.56C247.468 159.68 247.228 160.853 246.961 162.08C246.695 163.307 246.508 164.507 246.401 165.68C247.308 164.667 248.268 163.52 249.281 162.24C250.295 160.933 251.335 159.587 252.401 158.2C253.468 156.813 254.508 155.467 255.521 154.16C256.561 152.853 257.521 151.667 258.401 150.6C259.308 149.533 260.108 148.693 260.801 148.08C261.495 147.44 262.028 147.12 262.401 147.12C263.495 147.12 264.348 147.413 264.961 148C265.601 148.56 265.921 149.547 265.921 150.96C265.921 151.84 265.855 152.987 265.721 154.4C265.615 155.813 265.455 157.347 265.241 159C265.055 160.627 264.841 162.28 264.601 163.96C264.388 165.613 264.188 167.147 264.001 168.56C263.815 169.973 263.655 171.147 263.521 172.08ZM276.043 174.24C274.443 174.24 273.337 173.92 272.723 173.28C272.137 172.667 271.843 171.813 271.843 170.72C271.843 166.08 272.71 161.24 274.443 156.2C276.203 151.133 278.67 146.053 281.843 140.96C282.377 140.08 282.817 139.56 283.163 139.4C283.51 139.24 283.897 139.16 284.323 139.16C284.937 139.16 285.47 139.373 285.923 139.8C286.403 140.227 286.643 140.787 286.643 141.48C286.643 141.693 286.417 142.28 285.963 143.24C285.51 144.2 284.91 145.427 284.163 146.92C283.443 148.413 282.657 150.107 281.803 152C280.95 153.867 280.11 155.84 279.283 157.92C278.483 160 277.79 162.093 277.203 164.2C278.11 163.053 279.137 161.88 280.283 160.68C281.457 159.453 282.67 158.333 283.923 157.32C285.177 156.28 286.39 155.453 287.563 154.84C288.737 154.2 289.79 153.88 290.723 153.88C291.603 153.88 292.417 154.093 293.163 154.52C293.937 154.947 294.563 155.613 295.043 156.52C295.523 157.427 295.763 158.6 295.763 160.04C295.763 161.613 295.31 163.227 294.403 164.88C293.523 166.533 292.23 168.067 290.523 169.48C288.843 170.893 286.777 172.04 284.323 172.92C281.897 173.8 279.137 174.24 276.043 174.24ZM277.723 169.68C279.777 169.52 281.63 169.08 283.283 168.36C284.963 167.64 286.403 166.747 287.603 165.68C288.803 164.613 289.723 163.493 290.363 162.32C291.003 161.12 291.323 159.987 291.323 158.92C291.323 158.68 291.257 158.56 291.123 158.56C290.563 158.56 289.857 158.813 289.003 159.32C288.15 159.8 287.217 160.453 286.203 161.28C285.19 162.107 284.163 163.013 283.123 164C282.083 164.987 281.097 165.973 280.163 166.96C279.23 167.947 278.417 168.853 277.723 169.68ZM301.698 173.6C300.951 173.6 300.284 173.347 299.698 172.84C299.138 172.333 298.858 171.507 298.858 170.36C298.858 169.747 298.938 168.88 299.098 167.76C299.284 166.64 299.524 165.427 299.818 164.12C300.111 162.787 300.431 161.467 300.778 160.16C301.151 158.853 301.511 157.693 301.858 156.68C302.204 155.64 302.511 154.867 302.778 154.36C303.124 153.747 303.444 153.373 303.738 153.24C304.058 153.08 304.364 153 304.658 153C305.191 153 305.684 153.16 306.138 153.48C306.618 153.8 306.858 154.507 306.858 155.6C306.858 156.027 306.778 156.72 306.618 157.68C306.458 158.613 306.258 159.707 306.018 160.96C305.778 162.213 305.511 163.507 305.218 164.84C304.951 166.173 304.684 167.44 304.418 168.64C304.178 169.813 303.978 170.8 303.818 171.6C303.684 172.267 303.404 172.76 302.978 173.08C302.578 173.427 302.151 173.6 301.698 173.6ZM306.298 149.04C305.418 149.04 304.604 148.787 303.858 148.28C303.111 147.747 302.738 146.933 302.738 145.84C302.738 144.933 302.964 144.2 303.418 143.64C303.871 143.08 304.404 142.68 305.018 142.44C305.658 142.173 306.218 142.04 306.698 142.04C307.178 142.04 307.711 142.147 308.298 142.36C308.884 142.547 309.391 142.907 309.818 143.44C310.271 143.947 310.498 144.68 310.498 145.64C310.498 146.28 310.271 146.867 309.818 147.4C309.364 147.907 308.804 148.307 308.138 148.6C307.498 148.893 306.884 149.04 306.298 149.04ZM316.232 173C315.592 173 314.952 172.787 314.312 172.36C313.699 171.907 313.192 171.267 312.792 170.44C312.392 169.587 312.192 168.56 312.192 167.36C312.192 165.76 312.405 164.053 312.832 162.24C313.285 160.427 313.832 158.613 314.472 156.8C315.112 154.987 315.739 153.28 316.352 151.68C316.645 150.907 317.005 150.387 317.432 150.12C317.859 149.827 318.419 149.68 319.112 149.68C320.685 149.68 321.472 150.467 321.472 152.04C321.472 152.307 321.352 152.827 321.112 153.6C320.872 154.347 320.552 155.267 320.152 156.36C319.779 157.453 319.379 158.64 318.952 159.92C318.552 161.173 318.179 162.453 317.832 163.76C317.512 165.04 317.259 166.253 317.072 167.4C317.685 166.467 318.365 165.307 319.112 163.92C319.885 162.507 320.699 161.027 321.552 159.48C322.432 157.933 323.312 156.493 324.192 155.16C325.072 153.8 325.939 152.693 326.792 151.84C327.645 150.987 328.459 150.56 329.232 150.56C329.899 150.56 330.525 150.693 331.112 150.96C331.725 151.2 332.259 151.68 332.712 152.4C333.165 153.093 333.512 154.093 333.752 155.4C334.019 156.707 334.152 158.427 334.152 160.56C334.152 161.627 334.245 162.667 334.432 163.68C334.645 164.667 334.992 165.493 335.472 166.16C335.952 166.8 336.632 167.12 337.512 167.12C339.032 167.12 340.392 166.84 341.592 166.28C342.792 165.72 343.845 165.067 344.752 164.32C345.659 163.573 346.419 162.92 347.032 162.36C347.405 161.987 347.725 161.693 347.992 161.48C348.285 161.267 348.525 161.16 348.712 161.16C349.272 161.16 349.672 161.307 349.912 161.6C350.179 161.893 350.312 162.293 350.312 162.8C350.312 163.067 350.085 163.56 349.632 164.28C349.179 165 348.539 165.827 347.712 166.76C346.912 167.667 345.992 168.547 344.952 169.4C343.912 170.253 342.792 170.96 341.592 171.52C340.392 172.08 339.165 172.36 337.912 172.36C335.805 172.36 334.059 171.987 332.672 171.24C331.312 170.467 330.299 169.187 329.632 167.4C328.965 165.587 328.632 163.12 328.632 160C328.632 159.92 328.632 159.787 328.632 159.6C328.632 158.773 328.619 158.04 328.592 157.4C328.592 156.76 328.552 156.24 328.472 155.84C328.019 156.667 327.472 157.653 326.832 158.8C326.219 159.947 325.552 161.173 324.832 162.48C324.112 163.76 323.365 165.027 322.592 166.28C321.819 167.507 321.045 168.627 320.272 169.64C319.525 170.653 318.805 171.467 318.112 172.08C317.419 172.693 316.792 173 316.232 173ZM349.393 174.52C348.54 174.52 347.766 174.28 347.073 173.8C346.38 173.347 345.833 172.747 345.433 172C345.033 171.227 344.833 170.4 344.833 169.52C344.833 167.867 345.193 166.253 345.913 164.68C346.66 163.107 347.633 161.613 348.833 160.2C350.033 158.787 351.34 157.493 352.753 156.32C354.193 155.12 355.62 154.093 357.033 153.24C358.473 152.387 359.78 151.72 360.953 151.24C362.153 150.76 363.086 150.52 363.753 150.52C364.526 150.52 365.153 150.693 365.633 151.04C366.14 151.36 366.393 151.867 366.393 152.56C366.393 152.773 366.34 152.947 366.233 153.08C366.58 153.16 366.86 153.36 367.073 153.68C367.286 154 367.393 154.48 367.393 155.12C367.393 155.387 367.326 156.08 367.193 157.2C367.06 158.32 366.913 159.68 366.753 161.28C366.62 162.88 366.553 164.547 366.553 166.28C366.553 166.547 366.593 166.787 366.673 167C366.753 167.187 366.926 167.28 367.193 167.28C368.26 167.28 369.34 167.067 370.433 166.64C371.553 166.187 372.633 165.64 373.673 165C374.74 164.333 375.7 163.68 376.553 163.04C377.433 162.373 378.166 161.827 378.753 161.4C379.366 160.947 379.766 160.72 379.953 160.72C380.86 160.72 381.313 161.173 381.313 162.08C381.313 162.32 381.02 162.827 380.433 163.6C379.873 164.347 379.1 165.213 378.113 166.2C377.126 167.16 376.02 168.12 374.793 169.08C373.593 170.013 372.34 170.787 371.033 171.4C369.753 172.013 368.513 172.32 367.313 172.32C365.846 172.32 364.726 171.973 363.953 171.28C363.206 170.587 362.673 169.653 362.353 168.48C362.06 167.28 361.9 165.933 361.873 164.44C360.513 166.387 359.1 168.12 357.633 169.64C356.193 171.133 354.766 172.32 353.353 173.2C351.94 174.08 350.62 174.52 349.393 174.52ZM363.553 154.48C360.94 155.733 358.593 157.173 356.513 158.8C354.433 160.4 352.78 162.08 351.553 163.84C350.353 165.6 349.753 167.293 349.753 168.92C349.753 169.373 349.966 169.6 350.393 169.6C350.9 169.6 351.566 169.307 352.393 168.72C353.246 168.133 354.166 167.36 355.153 166.4C356.14 165.413 357.126 164.32 358.113 163.12C359.1 161.893 360.02 160.64 360.873 159.36C361.726 158.08 362.406 156.853 362.913 155.68C363.1 155.253 363.313 154.853 363.553 154.48ZM384.928 174.12C383.434 174.12 382.141 173.773 381.048 173.08C379.954 172.413 379.114 171.547 378.528 170.48C377.941 169.387 377.648 168.267 377.648 167.12C377.648 165.2 377.941 163.427 378.528 161.8C379.114 160.147 379.888 158.653 380.848 157.32C381.808 155.96 382.848 154.76 383.968 153.72C385.114 152.68 386.221 151.813 387.288 151.12C388.381 150.4 389.354 149.867 390.208 149.52C391.061 149.147 391.688 148.96 392.088 148.96C392.808 148.96 393.314 149.12 393.608 149.44C393.928 149.733 394.088 150.227 394.088 150.92C394.088 151.32 393.794 151.8 393.208 152.36C392.648 152.92 391.901 153.56 390.968 154.28C390.061 155 389.101 155.813 388.088 156.72C387.074 157.627 386.101 158.64 385.168 159.76C384.261 160.88 383.514 162.107 382.928 163.44C382.368 164.773 382.088 166.227 382.088 167.8C382.088 168.387 382.194 168.84 382.408 169.16C382.648 169.48 383.034 169.64 383.568 169.64C385.088 169.64 386.714 169.373 388.448 168.84C390.208 168.28 391.954 167.587 393.688 166.76C395.448 165.907 397.101 165.027 398.648 164.12C400.221 163.213 401.568 162.4 402.688 161.68C403.141 161.36 403.528 161.107 403.848 160.92C404.168 160.733 404.394 160.64 404.528 160.64C405.328 160.64 405.728 161.053 405.728 161.88C405.728 162.307 405.408 162.88 404.768 163.6C404.021 164.533 403.008 165.493 401.728 166.48C400.474 167.467 399.074 168.413 397.528 169.32C396.008 170.227 394.448 171.04 392.848 171.76C391.274 172.48 389.794 173.053 388.408 173.48C387.021 173.907 385.861 174.12 384.928 174.12ZM404.432 173.6C403.685 173.6 403.019 173.347 402.432 172.84C401.872 172.333 401.592 171.507 401.592 170.36C401.592 169.747 401.672 168.88 401.832 167.76C402.019 166.64 402.259 165.427 402.552 164.12C402.845 162.787 403.165 161.467 403.512 160.16C403.885 158.853 404.245 157.693 404.592 156.68C404.939 155.64 405.245 154.867 405.512 154.36C405.859 153.747 406.179 153.373 406.472 153.24C406.792 153.08 407.099 153 407.392 153C407.925 153 408.419 153.16 408.872 153.48C409.352 153.8 409.592 154.507 409.592 155.6C409.592 156.027 409.512 156.72 409.352 157.68C409.192 158.613 408.992 159.707 408.752 160.96C408.512 162.213 408.245 163.507 407.952 164.84C407.685 166.173 407.419 167.44 407.152 168.64C406.912 169.813 406.712 170.8 406.552 171.6C406.419 172.267 406.139 172.76 405.712 173.08C405.312 173.427 404.885 173.6 404.432 173.6ZM409.032 149.04C408.152 149.04 407.339 148.787 406.592 148.28C405.845 147.747 405.472 146.933 405.472 145.84C405.472 144.933 405.699 144.2 406.152 143.64C406.605 143.08 407.139 142.68 407.752 142.44C408.392 142.173 408.952 142.04 409.432 142.04C409.912 142.04 410.445 142.147 411.032 142.36C411.619 142.547 412.125 142.907 412.552 143.44C413.005 143.947 413.232 144.68 413.232 145.64C413.232 146.28 413.005 146.867 412.552 147.4C412.099 147.907 411.539 148.307 410.872 148.6C410.232 148.893 409.619 149.04 409.032 149.04ZM421.597 174.32C419.704 174.32 418.184 173.653 417.037 172.32C415.89 170.96 415.317 169.147 415.317 166.88C415.317 166.16 415.41 165.427 415.597 164.68C415.81 163.933 416.064 163.24 416.357 162.6C416.197 162.36 416.064 162.053 415.957 161.68C415.877 161.28 415.837 160.813 415.837 160.28C415.837 158.547 416.144 156.96 416.757 155.52C417.37 154.053 418.197 152.787 419.237 151.72C420.277 150.653 421.424 149.827 422.677 149.24C423.93 148.653 425.197 148.36 426.477 148.36C428.664 148.36 430.45 149.093 431.837 150.56C433.25 152.027 433.957 154.307 433.957 157.4C433.957 158.947 433.717 160.52 433.237 162.12C432.757 163.72 432.104 165.253 431.277 166.72C430.477 168.16 429.544 169.453 428.477 170.6C427.437 171.747 426.317 172.653 425.117 173.32C423.944 173.987 422.77 174.32 421.597 174.32ZM420.957 160.8C421.09 161.093 421.157 161.44 421.157 161.84C421.157 162.24 421.077 162.653 420.917 163.08C420.757 163.507 420.597 164.08 420.437 164.8C420.277 165.493 420.197 166.493 420.197 167.8C420.197 168.147 420.237 168.44 420.317 168.68C420.424 168.893 420.65 169 420.997 169C421.904 169 422.757 168.707 423.557 168.12C424.384 167.533 425.117 166.76 425.757 165.8C426.424 164.84 426.984 163.773 427.437 162.6C427.917 161.4 428.277 160.187 428.517 158.96C428.784 157.707 428.917 156.547 428.917 155.48C428.917 154.787 428.784 154.307 428.517 154.04C428.25 153.773 427.784 153.64 427.117 153.64C426.21 153.64 425.277 153.933 424.317 154.52C423.384 155.08 422.597 155.853 421.957 156.84C421.317 157.8 420.997 158.893 420.997 160.12C420.997 160.36 420.984 160.587 420.957 160.8ZM426.477 147.56C425.437 147.56 424.917 147.04 424.917 146C424.917 145.813 425.064 145.347 425.357 144.6C425.677 143.853 426.077 142.973 426.557 141.96C427.037 140.92 427.53 139.893 428.037 138.88C428.544 137.867 429.01 137 429.437 136.28C429.704 135.827 429.997 135.48 430.317 135.24C430.664 135 431.104 134.88 431.637 134.88C432.464 134.88 433.077 135.147 433.477 135.68C433.877 136.187 434.077 136.867 434.077 137.72C434.077 137.907 433.904 138.293 433.557 138.88C433.21 139.44 432.77 140.107 432.237 140.88C431.704 141.653 431.144 142.44 430.557 143.24C429.997 144.04 429.477 144.76 428.997 145.4C428.544 146.013 428.21 146.453 427.997 146.72C427.784 146.987 427.57 147.2 427.357 147.36C427.144 147.493 426.85 147.56 426.477 147.56ZM442.404 173C441.764 173 441.124 172.787 440.484 172.36C439.87 171.907 439.364 171.267 438.964 170.44C438.564 169.587 438.364 168.56 438.364 167.36C438.364 165.76 438.577 164.053 439.004 162.24C439.457 160.427 440.004 158.613 440.644 156.8C441.284 154.987 441.91 153.28 442.524 151.68C442.817 150.907 443.177 150.387 443.604 150.12C444.03 149.827 444.59 149.68 445.284 149.68C446.857 149.68 447.644 150.467 447.644 152.04C447.644 152.307 447.524 152.827 447.284 153.6C447.044 154.347 446.724 155.267 446.324 156.36C445.95 157.453 445.55 158.64 445.124 159.92C444.724 161.173 444.35 162.453 444.004 163.76C443.684 165.04 443.43 166.253 443.244 167.4C443.857 166.467 444.537 165.307 445.284 163.92C446.057 162.507 446.87 161.027 447.724 159.48C448.604 157.933 449.484 156.493 450.364 155.16C451.244 153.8 452.11 152.693 452.964 151.84C453.817 150.987 454.63 150.56 455.404 150.56C456.07 150.56 456.697 150.693 457.284 150.96C457.897 151.2 458.43 151.68 458.884 152.4C459.337 153.093 459.684 154.093 459.924 155.4C460.19 156.707 460.324 158.427 460.324 160.56C460.324 161.627 460.417 162.667 460.604 163.68C460.817 164.667 461.164 165.493 461.644 166.16C462.124 166.8 462.804 167.12 463.684 167.12C465.204 167.12 466.564 166.84 467.764 166.28C468.964 165.72 470.017 165.067 470.924 164.32C471.83 163.573 472.59 162.92 473.204 162.36C473.577 161.987 473.897 161.693 474.164 161.48C474.457 161.267 474.697 161.16 474.884 161.16C475.444 161.16 475.844 161.307 476.084 161.6C476.35 161.893 476.484 162.293 476.484 162.8C476.484 163.067 476.257 163.56 475.804 164.28C475.35 165 474.71 165.827 473.884 166.76C473.084 167.667 472.164 168.547 471.124 169.4C470.084 170.253 468.964 170.96 467.764 171.52C466.564 172.08 465.337 172.36 464.084 172.36C461.977 172.36 460.23 171.987 458.844 171.24C457.484 170.467 456.47 169.187 455.804 167.4C455.137 165.587 454.804 163.12 454.804 160C454.804 159.92 454.804 159.787 454.804 159.6C454.804 158.773 454.79 158.04 454.764 157.4C454.764 156.76 454.724 156.24 454.644 155.84C454.19 156.667 453.644 157.653 453.004 158.8C452.39 159.947 451.724 161.173 451.004 162.48C450.284 163.76 449.537 165.027 448.764 166.28C447.99 167.507 447.217 168.627 446.444 169.64C445.697 170.653 444.977 171.467 444.284 172.08C443.59 172.693 442.964 173 442.404 173ZM492.184 185.84C491.437 185.84 490.85 185.573 490.424 185.04C490.024 184.533 489.824 183.747 489.824 182.68C489.824 181.213 489.957 179.467 490.224 177.44C490.49 175.413 490.85 173.267 491.304 171C491.757 168.733 492.25 166.507 492.784 164.32C493.424 161.813 494.05 159.533 494.664 157.48C495.304 155.427 495.944 153.787 496.584 152.56C497.25 151.307 497.917 150.68 498.584 150.68C499.197 150.68 499.73 150.907 500.184 151.36C500.664 151.787 500.904 152.427 500.904 153.28C500.904 153.893 500.744 154.773 500.424 155.92C500.104 157.04 499.704 158.44 499.224 160.12C500.13 158.627 501.064 157.16 502.024 155.72C503.01 154.28 504.01 152.973 505.024 151.8C506.037 150.627 507.024 149.693 507.984 149C508.944 148.307 509.85 147.96 510.704 147.96C511.717 147.96 512.61 148.253 513.384 148.84C514.184 149.427 514.81 150.227 515.264 151.24C515.717 152.253 515.944 153.4 515.944 154.68C515.944 157.053 515.517 159.36 514.664 161.6C513.81 163.813 512.624 165.8 511.104 167.56C509.61 169.32 507.864 170.72 505.864 171.76C503.864 172.773 501.704 173.28 499.384 173.28C498.717 173.28 498.104 173.213 497.544 173.08C497.01 172.973 496.517 172.84 496.064 172.68C495.744 174.387 495.437 176.133 495.144 177.92C494.877 179.733 494.597 181.64 494.304 183.64C493.984 185.107 493.277 185.84 492.184 185.84ZM511.104 152.68C510.517 152.68 509.77 153.08 508.864 153.88C507.984 154.68 507.024 155.733 505.984 157.04C504.944 158.32 503.89 159.72 502.824 161.24C501.784 162.733 500.784 164.2 499.824 165.64C498.89 167.08 498.09 168.333 497.424 169.4C499.45 169.187 501.237 168.653 502.784 167.8C504.33 166.92 505.65 165.853 506.744 164.6C507.837 163.347 508.717 162.027 509.384 160.64C510.077 159.227 510.584 157.853 510.904 156.52C511.224 155.187 511.384 154.027 511.384 153.04C511.384 152.8 511.29 152.68 511.104 152.68ZM539.195 155.68C539.195 157.413 538.208 159.133 536.235 160.84C534.288 162.52 531.262 164.013 527.155 165.32C527.155 165.347 527.155 165.387 527.155 165.44C527.155 166.32 527.262 167.027 527.475 167.56C527.688 168.067 528.155 168.32 528.875 168.32C529.942 168.32 531.128 168 532.435 167.36C533.768 166.693 535.142 165.853 536.555 164.84C537.995 163.8 539.395 162.707 540.755 161.56C542.115 160.413 543.368 159.333 544.515 158.32C545.688 157.28 546.675 156.44 547.475 155.8C548.302 155.133 548.848 154.8 549.115 154.8C549.675 154.8 550.142 155.013 550.515 155.44C550.915 155.867 551.115 156.507 551.115 157.36C551.115 157.84 551.088 158.413 551.035 159.08C552.208 157.053 553.568 155.387 555.115 154.08C556.662 152.747 558.182 151.76 559.675 151.12C561.195 150.453 562.488 150.12 563.555 150.12C564.755 150.12 565.568 150.36 565.995 150.84C566.422 151.293 566.635 151.773 566.635 152.28C566.635 152.573 566.568 152.867 566.435 153.16C566.328 153.427 566.035 153.72 565.555 154.04C565.102 154.36 564.342 154.733 563.275 155.16C561.862 155.693 560.515 156.32 559.235 157.04C557.982 157.76 556.822 158.747 555.755 160C554.715 161.227 553.768 162.88 552.915 164.96C552.088 167.013 551.395 169.653 550.835 172.88C550.648 173.787 550.355 174.4 549.955 174.72C549.555 175.067 549.088 175.24 548.555 175.24C548.502 175.24 548.408 175.24 548.275 175.24C548.035 175.267 547.782 175.24 547.515 175.16C547.275 175.107 547.035 174.88 546.795 174.48C546.582 174.107 546.408 173.453 546.275 172.52C546.142 171.587 546.075 170.253 546.075 168.52C546.075 167.48 546.115 166.387 546.195 165.24C546.302 164.067 546.435 162.853 546.595 161.6C545.235 162.933 543.782 164.28 542.235 165.64C540.688 167 539.088 168.253 537.435 169.4C535.808 170.52 534.208 171.427 532.635 172.12C531.088 172.813 529.648 173.16 528.315 173.16C526.528 173.16 525.062 172.587 523.915 171.44C522.795 170.267 522.235 168.467 522.235 166.04C522.235 163.64 522.555 161.467 523.195 159.52C523.862 157.547 524.715 155.853 525.755 154.44C526.795 153.027 527.902 151.947 529.075 151.2C530.275 150.427 531.395 150.04 532.435 150.04C534.648 150.04 536.328 150.573 537.475 151.64C538.622 152.68 539.195 154.027 539.195 155.68ZM527.675 161.76C528.368 161.413 529.102 161.013 529.875 160.56C530.675 160.08 531.422 159.587 532.115 159.08C532.808 158.547 533.368 158.027 533.795 157.52C534.248 157.013 534.475 156.533 534.475 156.08C534.475 155.333 534.262 154.88 533.835 154.72C533.435 154.533 532.888 154.44 532.195 154.44C531.475 154.44 530.822 154.827 530.235 155.6C529.648 156.347 529.142 157.28 528.715 158.4C528.288 159.52 527.942 160.64 527.675 161.76ZM568.323 177.48C567.657 177.48 567.083 177.28 566.603 176.88C566.123 176.507 565.91 175.733 565.963 174.56C566.017 173.253 566.11 171.893 566.243 170.48C566.377 169.067 566.523 167.747 566.683 166.52C567.03 163.827 567.11 161.747 566.923 160.28C566.763 158.787 566.35 157.72 565.683 157.08C565.043 156.44 564.177 156.013 563.083 155.8C562.55 155.693 562.123 155.493 561.803 155.2C561.483 154.88 561.323 154.467 561.323 153.96C561.323 153.293 561.59 152.853 562.123 152.64C562.63 152.427 563.283 152.32 564.083 152.32C564.697 152.32 565.483 152.36 566.443 152.44C567.43 152.493 568.483 152.533 569.603 152.56C570.537 149.493 571.59 146.96 572.763 144.96C573.937 142.96 575.217 141.387 576.603 140.24C577.99 139.067 579.457 138.253 581.003 137.8C582.55 137.32 584.15 137.08 585.803 137.08C587.857 137.08 588.883 137.813 588.883 139.28C588.883 140 588.537 140.547 587.843 140.92C587.15 141.293 586.097 141.6 584.683 141.84C583.003 142.133 581.523 142.68 580.243 143.48C578.99 144.28 577.883 145.413 576.923 146.88C575.99 148.347 575.163 150.24 574.443 152.56C578.15 152.48 581.19 152.28 583.563 151.96C585.937 151.64 587.763 151.333 589.043 151.04C590.35 150.72 591.257 150.56 591.763 150.56C592.483 150.56 592.923 150.733 593.083 151.08C593.27 151.427 593.363 151.8 593.363 152.2C593.363 152.653 592.937 153.12 592.083 153.6C591.523 153.92 590.63 154.28 589.403 154.68C588.177 155.053 586.737 155.427 585.083 155.8C583.43 156.147 581.683 156.44 579.843 156.68C578.03 156.893 576.257 157 574.523 157C574.097 157 573.71 157 573.363 157C573.07 158.547 572.777 160.187 572.483 161.92C572.217 163.627 571.977 165.293 571.763 166.92C571.55 168.547 571.363 170.027 571.203 171.36C571.07 172.693 570.99 173.76 570.963 174.56C570.937 175.547 570.683 176.28 570.203 176.76C569.723 177.24 569.097 177.48 568.323 177.48ZM590.01 174.36C588.357 174.36 587.024 173.787 586.01 172.64C584.997 171.467 584.49 169.587 584.49 167C584.49 165.347 584.677 163.693 585.05 162.04C585.45 160.36 585.997 158.773 586.69 157.28C587.41 155.76 588.237 154.413 589.17 153.24C590.13 152.067 591.184 151.147 592.33 150.48C593.477 149.787 594.664 149.44 595.89 149.44C597.97 149.44 599.597 150 600.77 151.12C601.944 152.24 602.53 153.667 602.53 155.4C602.53 156.733 602.157 157.947 601.41 159.04C600.69 160.107 599.704 161.067 598.45 161.92C597.197 162.773 595.797 163.547 594.25 164.24C592.704 164.933 591.117 165.56 589.49 166.12C589.357 167.08 589.29 167.933 589.29 168.68C589.29 169.133 589.544 169.36 590.05 169.36C591.25 169.36 592.53 169.173 593.89 168.8C595.277 168.4 596.677 167.893 598.09 167.28C599.504 166.64 600.864 165.987 602.17 165.32C603.477 164.627 604.664 163.973 605.73 163.36C606.824 162.72 607.717 162.213 608.41 161.84C609.13 161.44 609.597 161.24 609.81 161.24C610.397 161.24 610.824 161.413 611.09 161.76C611.357 162.107 611.49 162.48 611.49 162.88C611.49 163.067 611.13 163.48 610.41 164.12C609.717 164.76 608.757 165.52 607.53 166.4C606.33 167.253 604.97 168.147 603.45 169.08C601.957 169.987 600.397 170.853 598.77 171.68C597.17 172.48 595.61 173.12 594.09 173.6C592.597 174.107 591.237 174.36 590.01 174.36ZM590.17 162.56C591.264 161.92 592.344 161.253 593.41 160.56C594.504 159.84 595.41 159.04 596.13 158.16C596.85 157.253 597.21 156.2 597.21 155C597.21 154.653 597.117 154.427 596.93 154.32C596.744 154.187 596.477 154.12 596.13 154.12C595.197 154.12 594.344 154.533 593.57 155.36C592.824 156.187 592.157 157.253 591.57 158.56C591.01 159.84 590.544 161.173 590.17 162.56ZM615.514 174.12C614.02 174.12 612.727 173.773 611.634 173.08C610.54 172.413 609.7 171.547 609.114 170.48C608.527 169.387 608.234 168.267 608.234 167.12C608.234 165.2 608.527 163.427 609.114 161.8C609.7 160.147 610.474 158.653 611.434 157.32C612.394 155.96 613.434 154.76 614.554 153.72C615.7 152.68 616.807 151.813 617.874 151.12C618.967 150.4 619.94 149.867 620.794 149.52C621.647 149.147 622.274 148.96 622.674 148.96C623.394 148.96 623.9 149.12 624.194 149.44C624.514 149.733 624.674 150.227 624.674 150.92C624.674 151.32 624.38 151.8 623.794 152.36C623.234 152.92 622.487 153.56 621.554 154.28C620.647 155 619.687 155.813 618.674 156.72C617.66 157.627 616.687 158.64 615.754 159.76C614.847 160.88 614.1 162.107 613.514 163.44C612.954 164.773 612.674 166.227 612.674 167.8C612.674 168.387 612.78 168.84 612.994 169.16C613.234 169.48 613.62 169.64 614.154 169.64C615.674 169.64 617.3 169.373 619.034 168.84C620.794 168.28 622.54 167.587 624.274 166.76C626.034 165.907 627.687 165.027 629.234 164.12C630.807 163.213 632.154 162.4 633.274 161.68C633.727 161.36 634.114 161.107 634.434 160.92C634.754 160.733 634.98 160.64 635.114 160.64C635.914 160.64 636.314 161.053 636.314 161.88C636.314 162.307 635.994 162.88 635.354 163.6C634.607 164.533 633.594 165.493 632.314 166.48C631.06 167.467 629.66 168.413 628.114 169.32C626.594 170.227 625.034 171.04 623.434 171.76C621.86 172.48 620.38 173.053 618.994 173.48C617.607 173.907 616.447 174.12 615.514 174.12ZM662.219 152.84C662.219 153.16 662.113 153.44 661.899 153.68C661.686 153.92 661.419 154.107 661.099 154.24C660.646 154.427 659.859 154.667 658.739 154.96C657.619 155.253 656.259 155.587 654.659 155.96C653.086 156.333 651.393 156.72 649.579 157.12C647.766 157.493 645.953 157.853 644.139 158.2C643.446 160.76 642.739 163.4 642.019 166.12C641.299 168.813 640.579 171.467 639.859 174.08C639.593 175.013 639.273 175.72 638.899 176.2C638.526 176.707 637.886 176.96 636.979 176.96C635.993 176.96 635.326 176.64 634.979 176C634.659 175.387 634.619 174.547 634.859 173.48C635.553 170.573 636.193 167.867 636.779 165.36C637.393 162.853 637.886 160.827 638.259 159.28C636.659 159.547 635.259 159.76 634.059 159.92C632.859 160.053 632.006 160.107 631.499 160.08C630.939 160.027 630.473 159.8 630.099 159.4C629.726 159 629.553 158.507 629.579 157.92C629.633 157.387 629.873 156.933 630.299 156.56C630.726 156.16 631.233 155.92 631.819 155.84C632.646 155.76 633.713 155.64 635.019 155.48C636.326 155.32 637.766 155.133 639.339 154.92C639.686 153.56 640.086 152.16 640.539 150.72C640.993 149.253 641.459 147.853 641.939 146.52C642.446 145.16 642.926 143.973 643.379 142.96C643.833 141.947 644.246 141.213 644.619 140.76C644.913 140.413 645.273 140.147 645.699 139.96C646.153 139.773 646.593 139.68 647.019 139.68C647.579 139.68 648.033 139.88 648.379 140.28C648.726 140.68 648.899 141.147 648.899 141.68C648.899 141.893 648.886 142.12 648.859 142.36C648.833 142.573 648.779 142.787 648.699 143C648.193 144.333 647.646 145.947 647.059 147.84C646.499 149.733 645.913 151.813 645.299 154.08C647.299 153.787 649.259 153.493 651.179 153.2C653.126 152.88 654.886 152.587 656.459 152.32C658.059 152.027 659.339 151.773 660.299 151.56C660.833 151.373 661.286 151.413 661.659 151.68C662.033 151.92 662.219 152.307 662.219 152.84ZM657.87 174.52C657.016 174.52 656.243 174.28 655.55 173.8C654.856 173.347 654.31 172.747 653.91 172C653.51 171.227 653.31 170.4 653.31 169.52C653.31 167.867 653.67 166.253 654.39 164.68C655.136 163.107 656.11 161.613 657.31 160.2C658.51 158.787 659.816 157.493 661.23 156.32C662.67 155.12 664.096 154.093 665.51 153.24C666.95 152.387 668.256 151.72 669.43 151.24C670.63 150.76 671.563 150.52 672.23 150.52C673.003 150.52 673.63 150.693 674.11 151.04C674.616 151.36 674.87 151.867 674.87 152.56C674.87 152.773 674.816 152.947 674.71 153.08C675.056 153.16 675.336 153.36 675.55 153.68C675.763 154 675.87 154.48 675.87 155.12C675.87 155.387 675.803 156.08 675.67 157.2C675.536 158.32 675.39 159.68 675.23 161.28C675.096 162.88 675.03 164.547 675.03 166.28C675.03 166.547 675.07 166.787 675.15 167C675.23 167.187 675.403 167.28 675.67 167.28C676.736 167.28 677.816 167.067 678.91 166.64C680.03 166.187 681.11 165.64 682.15 165C683.216 164.333 684.176 163.68 685.03 163.04C685.91 162.373 686.643 161.827 687.23 161.4C687.843 160.947 688.243 160.72 688.43 160.72C689.336 160.72 689.79 161.173 689.79 162.08C689.79 162.32 689.496 162.827 688.91 163.6C688.35 164.347 687.576 165.213 686.59 166.2C685.603 167.16 684.496 168.12 683.27 169.08C682.07 170.013 680.816 170.787 679.51 171.4C678.23 172.013 676.99 172.32 675.79 172.32C674.323 172.32 673.203 171.973 672.43 171.28C671.683 170.587 671.15 169.653 670.83 168.48C670.536 167.28 670.376 165.933 670.35 164.44C668.99 166.387 667.576 168.12 666.11 169.64C664.67 171.133 663.243 172.32 661.83 173.2C660.416 174.08 659.096 174.52 657.87 174.52ZM672.03 154.48C669.416 155.733 667.07 157.173 664.99 158.8C662.91 160.4 661.256 162.08 660.03 163.84C658.83 165.6 658.23 167.293 658.23 168.92C658.23 169.373 658.443 169.6 658.87 169.6C659.376 169.6 660.043 169.307 660.87 168.72C661.723 168.133 662.643 167.36 663.63 166.4C664.616 165.413 665.603 164.32 666.59 163.12C667.576 161.893 668.496 160.64 669.35 159.36C670.203 158.08 670.883 156.853 671.39 155.68C671.576 155.253 671.79 154.853 672.03 154.48Z" fill="white"/>
</svg>
