<svg width="99" height="50" viewBox="0 0 99 50" fill="none" xmlns="http://www.w3.org/2000/svg">
<g filter="url(#filter0_d_294_11170)">
<path d="M24.9131 17.953L15.0163 11H15V30.3395H34.823V11.1031L24.9131 17.953Z" fill="#FFF0D5"/>
<path d="M48.7167 18.2778C49.4237 18.2828 50.1276 18.3708 50.8141 18.54C51.5239 18.708 52.1898 19.0253 52.7674 19.4708C53.3856 19.9607 53.8796 20.5894 54.2094 21.306C54.6167 22.2425 54.8085 23.2586 54.7704 24.2792C54.7759 25.1302 54.6557 25.9775 54.4139 26.7935C54.1937 27.5526 53.8098 28.2543 53.2891 28.849C52.744 29.4534 52.0678 29.9252 51.3123 30.228C50.3736 30.5967 49.3709 30.775 48.3627 30.7524C46.2006 30.7524 44.562 29.9659 43.4468 28.3928C42.3317 26.8197 41.7732 24.5326 41.7715 21.5315C41.7712 20.4142 41.9041 19.3008 42.1674 18.2149C42.4094 17.1643 42.8374 16.1654 43.4311 15.2654C44.0012 14.4102 44.7555 13.6935 45.6387 13.1679C46.6289 12.6032 47.7555 12.322 48.8949 12.3552C49.3451 12.3577 49.7939 12.4052 50.2347 12.4967C50.7071 12.5899 51.1666 12.7396 51.6033 12.9425C52.0548 13.1526 52.4791 13.4167 52.867 13.729C53.2699 14.0574 53.6108 14.4552 53.8738 14.9036L52.8775 17.1242C52.8279 16.3541 52.6599 15.5963 52.3793 14.8773C52.1725 14.363 51.8639 13.8958 51.4722 13.5035C51.1388 13.1782 50.7325 12.9373 50.2871 12.8009C49.8341 12.6743 49.3653 12.6125 48.8949 12.6173C48.2635 12.5849 47.6446 12.8024 47.1724 13.223C46.7178 13.6614 46.3722 14.2002 46.163 14.7961C45.9101 15.5053 45.7472 16.2434 45.678 16.9931C45.592 17.8066 45.5492 18.624 45.5495 19.4419C45.9956 19.0347 46.5228 18.7265 47.0964 18.5374C47.6196 18.3666 48.1663 18.279 48.7167 18.2778ZM48.3601 30.485C48.6135 30.4918 48.8651 30.4399 49.0952 30.3335C49.3253 30.2271 49.5278 30.069 49.6867 29.8715C50.0476 29.4181 50.3149 28.8977 50.4733 28.3403C50.6653 27.6952 50.7892 27.0318 50.8429 26.3609C50.9032 25.6556 50.9321 25.0106 50.9321 24.4338C50.9321 23.9217 50.9155 23.3257 50.8823 22.6458C50.8514 21.9907 50.753 21.3405 50.5886 20.7056C50.4501 20.1471 50.1945 19.6243 49.8388 19.1719C49.6658 18.9636 49.4465 18.7987 49.1984 18.6904C48.9503 18.582 48.6802 18.5332 48.4099 18.5479C48.1404 18.5372 47.8717 18.5853 47.6227 18.689C47.3736 18.7927 47.1502 18.9494 46.9679 19.1483C46.5864 19.5729 46.2987 20.0732 46.1237 20.6165C45.9242 21.2171 45.7914 21.8378 45.7278 22.4675C45.6641 23.057 45.6308 23.6495 45.6282 24.2425C45.6133 25.23 45.6853 26.217 45.8432 27.192C45.9491 27.8583 46.1467 28.5068 46.4304 29.119C46.6215 29.5394 46.921 29.9014 47.2983 30.1677C47.6139 30.3743 47.9829 30.4846 48.3601 30.485Z" fill="#FFF0D5"/>
<path d="M63.2694 18.2779C63.9764 18.2828 64.6804 18.3708 65.3669 18.5401C66.0767 18.708 66.7425 19.0253 67.3201 19.4708C67.9383 19.9607 68.4324 20.5895 68.7621 21.3061C69.1695 22.2426 69.3612 23.2586 69.3232 24.2792C69.3286 25.1303 69.2085 25.9775 68.9666 26.7935C68.7465 27.5527 68.3625 28.2543 67.8419 28.849C67.2972 29.4541 66.6209 29.9259 65.865 30.2281C64.9263 30.5968 63.9237 30.775 62.9155 30.7525C60.7534 30.7525 59.1147 29.9659 57.9996 28.3928C56.8844 26.8197 56.326 24.5327 56.3242 21.5316C56.3222 20.4144 56.4533 19.301 56.7149 18.215C56.9597 17.1643 57.3893 16.1656 57.9838 15.2654C58.5542 14.4096 59.3095 13.6928 60.194 13.168C61.1832 12.603 62.309 12.3217 63.4477 12.3552C63.8987 12.3578 64.3484 12.4052 64.7901 12.4968C65.2606 12.5906 65.7183 12.7402 66.1534 12.9425C66.6049 13.1526 67.0292 13.4167 67.4171 13.729C67.82 14.0575 68.161 14.4552 68.4239 14.9036L67.4302 17.1243C67.3801 16.3567 67.2148 15.6011 66.94 14.8826C66.7336 14.3665 66.425 13.8974 66.0328 13.5036C65.6989 13.1763 65.2904 12.9352 64.8425 12.8009C64.3886 12.6741 63.919 12.6123 63.4477 12.6174C62.8152 12.5876 62.1964 12.808 61.7252 13.2309C61.2706 13.6693 60.9249 14.2081 60.7158 14.804C60.4641 15.5135 60.3012 16.2515 60.2307 17.0011C60.1461 17.8146 60.1032 18.6319 60.1023 19.4498C60.5488 19.0432 61.0758 18.7351 61.6491 18.5453C62.1719 18.3721 62.7187 18.2819 63.2694 18.2779ZM62.9129 30.485C63.1663 30.4918 63.4179 30.44 63.648 30.3336C63.8781 30.2271 64.0805 30.069 64.2395 29.8715C64.6013 29.4188 64.8688 28.8982 65.026 28.3404C65.2193 27.6956 65.3432 27.032 65.3957 26.3609C65.456 25.6557 65.4848 25.0107 65.4848 24.4339C65.4848 23.9218 65.4682 23.3257 65.435 22.6458C65.4055 21.9906 65.3071 21.3403 65.1414 20.7057C65.0026 20.1477 64.748 19.6251 64.3942 19.1719C64.2204 18.9639 64.0005 18.7993 63.7521 18.691C63.5036 18.5827 63.2333 18.5337 62.9627 18.5479C62.6932 18.5376 62.4246 18.5859 62.1756 18.6896C61.9267 18.7932 61.7032 18.9498 61.5207 19.1483C61.1391 19.5724 60.8521 20.0729 60.6791 20.6165C60.4783 21.2168 60.3455 21.8377 60.2832 22.4675C60.2187 23.057 60.1845 23.6495 60.1809 24.2425C60.1634 25.2254 60.2318 26.208 60.3854 27.1789C60.4921 27.8454 60.6906 28.4939 60.9753 29.106C61.1655 29.5269 61.4652 29.8891 61.8432 30.1547C62.1592 30.3682 62.5315 30.4832 62.9129 30.485Z" fill="#FFF0D5"/>
<path d="M73.0249 23.1805C72.9053 24.1741 72.9185 25.1792 73.0642 26.1693C73.1769 26.9794 73.4364 27.7621 73.8298 28.4791C74.1575 29.0769 74.6264 29.5855 75.1957 29.9605C75.7279 30.3058 76.3494 30.4881 76.9838 30.4848C77.5676 30.5138 78.1439 30.3427 78.6172 29.9998C79.0418 29.6536 79.3674 29.2014 79.5611 28.6889C79.7966 28.0914 79.9475 27.464 80.0094 26.8248C80.0871 26.1038 80.1256 25.3791 80.1247 24.6539C80.1247 22.8169 79.6878 21.4466 78.8138 20.5429C77.9399 19.6393 76.5171 19.1909 74.5455 19.1979L78.3891 12.8794H75.8092C75.3813 12.8702 74.9558 12.9478 74.5586 13.1075C74.1977 13.2634 73.8714 13.4898 73.5991 13.7734C73.3053 14.0795 73.0524 14.4223 72.8466 14.7933C72.6264 15.1866 72.3956 15.627 72.1571 16.1225L72.7443 12.6172H82.8042L79.1337 18.6709C79.8116 18.8357 80.4611 19.1009 81.0607 19.4575C82.2202 20.1343 83.1123 21.1884 83.5882 22.4437C83.8408 23.1139 83.967 23.825 83.9605 24.5412C83.9858 25.5087 83.7894 26.4692 83.3863 27.3491C83.0286 28.1 82.504 28.7591 81.8525 29.2762C81.1931 29.7899 80.4383 30.1677 79.6318 30.3878C78.7716 30.6283 77.8822 30.7483 76.9891 30.7444C76.1872 30.7568 75.3891 30.6318 74.6294 30.3747C73.9716 30.15 73.3578 29.8129 72.8151 29.3784C72.3144 28.9723 71.8908 28.4794 71.5645 27.9233C71.2447 27.3781 71.0121 26.7863 70.875 26.1693L73.0249 23.1805Z" fill="#FFF0D5"/>
</g>
<defs>
<filter id="filter0_d_294_11170" x="0" y="0" width="98.9629" height="49.7544" filterUnits="userSpaceOnUse" color-interpolation-filters="sRGB">
<feFlood flood-opacity="0" result="BackgroundImageFix"/>
<feColorMatrix in="SourceAlpha" type="matrix" values="0 0 0 0 0 0 0 0 0 0 0 0 0 0 0 0 0 0 127 0" result="hardAlpha"/>
<feOffset dy="4"/>
<feGaussianBlur stdDeviation="7.5"/>
<feComposite in2="hardAlpha" operator="out"/>
<feColorMatrix type="matrix" values="0 0 0 0 0 0 0 0 0 0 0 0 0 0 0 0 0 0 0.25 0"/>
<feBlend mode="normal" in2="BackgroundImageFix" result="effect1_dropShadow_294_11170"/>
<feBlend mode="normal" in="SourceGraphic" in2="effect1_dropShadow_294_11170" result="shape"/>
</filter>
</defs>
</svg>
