<svg width="43" height="8" viewBox="0 0 43 8" fill="none" xmlns="http://www.w3.org/2000/svg">
<path d="M38.5262 0.377162C38.5756 0.27275 38.652 0.184832 38.7468 0.123355C38.8415 0.0618784 38.9509 0.0292969 39.0625 0.0292969C39.1741 0.0292969 39.2835 0.0618784 39.3783 0.123355C39.4731 0.184832 39.5495 0.27275 39.5988 0.377162L40.43 2.13297L42.2882 2.41442C42.3986 2.43116 42.5024 2.4798 42.5877 2.55486C42.673 2.62992 42.7365 2.7284 42.771 2.83914C42.8054 2.94989 42.8095 3.06848 42.7827 3.1815C42.7559 3.29452 42.6993 3.39746 42.6193 3.47867L41.2746 4.84542L41.5923 6.77587C41.6112 6.89054 41.5989 7.00843 41.557 7.11623C41.515 7.22403 41.445 7.31743 41.3548 7.38589C41.2646 7.45434 41.1578 7.49511 41.0466 7.5036C40.9353 7.51208 40.824 7.48794 40.7252 7.4339L39.0622 6.5217L37.3998 7.4339C37.301 7.48794 37.1897 7.51208 37.0785 7.5036C36.9672 7.49511 36.8605 7.45434 36.7703 7.38589C36.6801 7.31743 36.6101 7.22403 36.5681 7.11623C36.5261 7.00843 36.5139 6.89054 36.5328 6.77587L36.8497 4.84542L35.505 3.47867C35.425 3.39741 35.3684 3.29441 35.3417 3.18133C35.3149 3.06825 35.319 2.94961 35.3535 2.83885C35.3881 2.72808 35.4517 2.62962 35.5371 2.55461C35.6225 2.4796 35.7264 2.43104 35.8369 2.41442L37.6951 2.13375L38.5262 0.377162ZM39.0629 1.00557L38.3304 2.55165C38.2876 2.64225 38.2244 2.72066 38.1461 2.78015C38.0679 2.83963 37.977 2.87841 37.8812 2.89314L36.2443 3.14107L37.429 4.34487C37.4984 4.41546 37.5503 4.50258 37.5802 4.59875C37.6102 4.69491 37.6173 4.79722 37.6009 4.89688L37.3213 6.59654L38.7848 5.79349C38.8706 5.7465 38.966 5.72195 39.0629 5.72195C39.1598 5.72195 39.2552 5.7465 39.341 5.79349L40.8045 6.59654L40.5249 4.89688C40.5085 4.79722 40.5156 4.69491 40.5456 4.59875C40.5755 4.50258 40.6274 4.41546 40.6968 4.34487L41.8808 3.14029L40.2446 2.89236C40.1487 2.87775 40.0576 2.83903 39.9792 2.77954C39.9008 2.72005 39.8375 2.64157 39.7947 2.55087L39.0629 1.00557Z" fill="#F1BA11"/>
<path d="M21.3498 0.330426C21.3976 0.240033 21.4717 0.163927 21.5636 0.110713C21.6554 0.0574982 21.7614 0.0292969 21.8696 0.0292969C21.9777 0.0292969 22.0837 0.0574982 22.1756 0.110713C22.2674 0.163927 22.3415 0.240033 22.3894 0.330426L23.3691 2.1808L25.5597 2.47798C25.6668 2.49238 25.7674 2.53443 25.8502 2.59937C25.933 2.66431 25.9947 2.74955 26.0282 2.84544C26.0617 2.94133 26.0657 3.04406 26.0399 3.14199C26.014 3.23992 25.9592 3.32914 25.8818 3.39957L24.296 4.83988L24.6702 6.87337C24.6885 6.97276 24.6766 7.07496 24.6359 7.16839C24.5952 7.26182 24.5272 7.34276 24.4396 7.40204C24.3521 7.46133 24.2485 7.4966 24.1406 7.50386C24.0327 7.51112 23.9247 7.49008 23.829 7.44313L21.8696 6.48252L19.9102 7.44313C19.8144 7.49008 19.7065 7.51112 19.5985 7.50386C19.4906 7.4966 19.387 7.46133 19.2995 7.40204C19.212 7.34276 19.144 7.26182 19.1032 7.16839C19.0625 7.07496 19.0506 6.97276 19.0689 6.87337L19.4425 4.83988L17.858 3.39897C17.7807 3.32856 17.7261 3.23942 17.7004 3.14163C17.6746 3.04383 17.6786 2.94126 17.712 2.84549C17.7454 2.74972 17.8069 2.66456 17.8895 2.59963C17.9721 2.53469 18.0725 2.49256 18.1794 2.47798L20.3694 2.1808L21.3498 0.330426Z" fill="#F1BA11"/>
<path d="M30.1934 0.330426C30.2396 0.240033 30.311 0.163927 30.3996 0.110713C30.4882 0.0574982 30.5904 0.0292969 30.6947 0.0292969C30.799 0.0292969 30.9012 0.0574982 30.9898 0.110713C31.0783 0.163927 31.1497 0.240033 31.1959 0.330426L32.1406 2.1808L34.253 2.47798C34.3563 2.49238 34.4533 2.53443 34.5332 2.59937C34.613 2.66431 34.6724 2.74955 34.7048 2.84544C34.7371 2.94133 34.741 3.04406 34.716 3.14199C34.6911 3.23992 34.6383 3.32914 34.5636 3.39957L33.0344 4.83988L33.3953 6.87337C33.413 6.97276 33.4015 7.07496 33.3622 7.16839C33.3229 7.26182 33.2574 7.34276 33.173 7.40204C33.0886 7.46133 32.9887 7.4966 32.8846 7.50386C32.7805 7.51112 32.6764 7.49008 32.5841 7.44313L30.6947 6.48252L28.8052 7.44313C28.7129 7.49008 28.6088 7.51112 28.5047 7.50386C28.4007 7.4966 28.3008 7.46133 28.2164 7.40204C28.132 7.34276 28.0664 7.26182 28.0271 7.16839C27.9878 7.07496 27.9764 6.97276 27.9941 6.87337L28.3543 4.83988L26.8264 3.39897C26.7519 3.32856 26.6992 3.23942 26.6744 3.14163C26.6495 3.04383 26.6534 2.94126 26.6856 2.84549C26.7179 2.74972 26.7771 2.66456 26.8568 2.59963C26.9364 2.53469 27.0332 2.49256 27.1363 2.47798L29.2481 2.1808L30.1934 0.330426Z" fill="#F1BA11"/>
<path d="M12.6818 0.330426C12.7297 0.240033 12.8037 0.163927 12.8956 0.110713C12.9874 0.0574982 13.0934 0.0292969 13.2016 0.0292969C13.3098 0.0292969 13.4157 0.0574982 13.5076 0.110713C13.5995 0.163927 13.6735 0.240033 13.7214 0.330426L14.7011 2.1808L16.8918 2.47798C16.9988 2.49238 17.0995 2.53443 17.1823 2.59937C17.265 2.66431 17.3267 2.74955 17.3602 2.84544C17.3937 2.94133 17.3978 3.04406 17.3719 3.14199C17.346 3.23992 17.2913 3.32914 17.2138 3.39957L15.628 4.83988L16.0022 6.87337C16.0206 6.97276 16.0087 7.07496 15.9679 7.16839C15.9272 7.26182 15.8592 7.34276 15.7717 7.40204C15.6841 7.46133 15.5806 7.4966 15.4726 7.50386C15.3647 7.51112 15.2568 7.49008 15.161 7.44313L13.2016 6.48252L11.2422 7.44313C11.1464 7.49008 11.0385 7.51112 10.9306 7.50386C10.8226 7.4966 10.7191 7.46133 10.6315 7.40204C10.544 7.34276 10.476 7.26182 10.4353 7.16839C10.3945 7.07496 10.3826 6.97276 10.401 6.87337L10.7746 4.83988L9.19003 3.39897C9.11278 3.32856 9.05818 3.23942 9.03238 3.14163C9.00659 3.04383 9.01064 2.94126 9.04406 2.84549C9.07748 2.74972 9.13895 2.66456 9.22154 2.59963C9.30412 2.53469 9.40453 2.49256 9.51144 2.47798L11.7014 2.1808L12.6818 0.330426Z" fill="#F1BA11"/>
<path d="M3.87508 0.330426C3.92125 0.240033 3.99266 0.163927 4.08124 0.110713C4.16981 0.0574982 4.27203 0.0292969 4.37632 0.0292969C4.48061 0.0292969 4.58282 0.0574982 4.6714 0.110713C4.75997 0.163927 4.83138 0.240033 4.87756 0.330426L5.82227 2.1808L7.93468 2.47798C8.03795 2.49238 8.13499 2.53443 8.21482 2.59937C8.29465 2.66431 8.35408 2.74955 8.3864 2.84544C8.41871 2.94133 8.42262 3.04406 8.39767 3.14199C8.37272 3.23992 8.31992 3.32914 8.24524 3.39957L6.71605 4.83988L7.07692 6.87337C7.0946 6.97276 7.08315 7.07496 7.04386 7.16839C7.00457 7.26182 6.93901 7.34276 6.8546 7.40204C6.7702 7.46133 6.67031 7.4966 6.56624 7.50386C6.46218 7.51112 6.35809 7.49008 6.26575 7.44313L4.37632 6.48252L2.48689 7.44313C2.39455 7.49008 2.29046 7.51112 2.18639 7.50386C2.08232 7.4966 1.98243 7.46133 1.89803 7.40204C1.81362 7.34276 1.74807 7.26182 1.70878 7.16839C1.66949 7.07496 1.65803 6.97276 1.67571 6.87337L2.03596 4.83988L0.508017 3.39897C0.433527 3.32856 0.380876 3.23942 0.356005 3.14163C0.331134 3.04383 0.335033 2.94126 0.367262 2.84549C0.399491 2.74972 0.458767 2.66456 0.538402 2.59963C0.618038 2.53469 0.714863 2.49256 0.817953 2.47798L2.92974 2.1808L3.87508 0.330426Z" fill="#F1BA11"/>
</svg>
