<svg width="10" height="8" viewBox="0 0 10 8" fill="none" xmlns="http://www.w3.org/2000/svg">
<path d="M4.34976 0.330426C4.39764 0.240033 4.4717 0.163927 4.56356 0.110713C4.65541 0.0574982 4.76141 0.0292969 4.86957 0.0292969C4.97772 0.0292969 5.08372 0.0574982 5.17557 0.110713C5.26743 0.163927 5.34149 0.240033 5.38937 0.330426L6.36907 2.1808L8.55972 2.47798C8.66681 2.49238 8.76745 2.53443 8.85023 2.59937C8.93302 2.66431 8.99466 2.74955 9.02817 2.84544C9.06168 2.94133 9.06573 3.04406 9.03986 3.14199C9.01399 3.23992 8.95923 3.32914 8.88178 3.39957L7.29596 4.83988L7.67019 6.87337C7.68853 6.97276 7.67665 7.07496 7.6359 7.16839C7.59516 7.26182 7.52717 7.34276 7.43964 7.40204C7.35211 7.46133 7.24852 7.4966 7.1406 7.50386C7.03268 7.51112 6.92473 7.49008 6.82897 7.44313L4.86957 6.48252L2.91016 7.44313C2.8144 7.49008 2.70645 7.51112 2.59853 7.50386C2.49061 7.4966 2.38702 7.46133 2.29949 7.40204C2.21196 7.34276 2.14397 7.26182 2.10323 7.16839C2.06248 7.07496 2.05061 6.97276 2.06894 6.87337L2.44253 4.83988L0.857996 3.39897C0.780746 3.32856 0.726145 3.23942 0.700353 3.14163C0.674561 3.04383 0.678605 2.94126 0.712027 2.84549C0.74545 2.74972 0.806922 2.66456 0.889506 2.59963C0.972091 2.53469 1.0725 2.49256 1.17941 2.47798L3.36941 2.1808L4.34976 0.330426Z" fill="#F1BA11"/>
</svg>
